<svg xmlns="http://www.w3.org/2000/svg" xmlns:xlink="http://www.w3.org/1999/xlink" width="500" zoomAndPan="magnify" viewBox="0 0 375 374.999991" height="500" preserveAspectRatio="xMidYMid meet" version="1.0"><defs><g/><clipPath id="da5657ae81"><path d="M 0 0 L 375 0 L 375 375 L 0 375 Z M 0 0 " clip-rule="nonzero"/></clipPath><clipPath id="40bfb401ad"><path d="M 187.5 375 C 137.441406 375 90.304688 355.515625 54.929688 320.070312 C 19.484375 284.695312 0 237.558594 0 187.5 C 0 137.441406 19.484375 90.304688 54.929688 54.929688 C 90.304688 19.484375 137.441406 0 187.5 0 C 237.558594 0 284.695312 19.484375 320.070312 54.929688 C 355.515625 90.378906 375 137.441406 375 187.5 C 375 237.558594 355.515625 284.695312 320.070312 320.070312 C 284.695312 355.515625 237.558594 375 187.5 375 Z M 187.5 11.242188 C 140.4375 11.242188 96.148438 29.601562 62.875 62.875 C 29.601562 96.148438 11.242188 140.4375 11.242188 187.5 C 11.242188 234.5625 29.601562 278.851562 62.875 312.125 C 96.148438 345.398438 140.4375 363.757812 187.5 363.757812 C 234.5625 363.757812 278.851562 345.398438 312.125 312.125 C 345.398438 278.851562 363.757812 234.5625 363.757812 187.5 C 363.757812 140.4375 345.398438 96.148438 312.125 62.875 C 278.851562 29.601562 234.5625 11.242188 187.5 11.242188 Z M 187.5 11.242188 " clip-rule="nonzero"/></clipPath><clipPath id="592c95a90d"><path d="M 0 0 L 375 0 L 375 375 L 0 375 Z M 0 0 " clip-rule="nonzero"/></clipPath><clipPath id="e3ee8ae545"><path d="M 187.5 375 C 137.441406 375 90.304688 355.515625 54.929688 320.070312 C 19.484375 284.695312 0 237.558594 0 187.5 C 0 137.441406 19.484375 90.304688 54.929688 54.929688 C 90.304688 19.484375 137.441406 0 187.5 0 C 237.558594 0 284.695312 19.484375 320.070312 54.929688 C 355.515625 90.378906 375 137.441406 375 187.5 C 375 237.558594 355.515625 284.695312 320.070312 320.070312 C 284.695312 355.515625 237.558594 375 187.5 375 Z M 187.5 11.242188 C 140.4375 11.242188 96.148438 29.601562 62.875 62.875 C 29.601562 96.148438 11.242188 140.4375 11.242188 187.5 C 11.242188 234.5625 29.601562 278.851562 62.875 312.125 C 96.148438 345.398438 140.4375 363.757812 187.5 363.757812 C 234.5625 363.757812 278.851562 345.398438 312.125 312.125 C 345.398438 278.851562 363.757812 234.5625 363.757812 187.5 C 363.757812 140.4375 345.398438 96.148438 312.125 62.875 C 278.851562 29.601562 234.5625 11.242188 187.5 11.242188 Z M 187.5 11.242188 " clip-rule="nonzero"/></clipPath><clipPath id="89f980e38c"><rect x="0" width="375" y="0" height="375"/></clipPath><clipPath id="7fd0cb99fa"><path d="M 31.433594 126.332031 L 343.203125 126.332031 L 343.203125 259.328125 L 31.433594 259.328125 Z M 31.433594 126.332031 " clip-rule="nonzero"/></clipPath><clipPath id="ebccaafb90"><path d="M 55.183594 55.183594 L 320.082031 55.183594 L 320.082031 320.082031 L 55.183594 320.082031 Z M 55.183594 55.183594 " clip-rule="nonzero"/></clipPath><clipPath id="c4e0735411"><rect x="0" width="243" y="0" height="76"/></clipPath><clipPath id="6271bb2c03"><rect x="0" width="234" y="0" height="68"/></clipPath><clipPath id="efc168120a"><rect x="0" width="375" y="0" height="375"/></clipPath></defs><rect x="-37.5" width="450" fill="#ffffff" y="-37.499999" height="449.999989" fill-opacity="1"/><rect x="-37.5" width="450" fill="#1e43ac" y="-37.499999" height="449.999989" fill-opacity="1"/><g transform="matrix(1, 0, 0, 1, 0, 0)"><g clip-path="url(#efc168120a)"><g clip-path="url(#da5657ae81)"><g clip-path="url(#40bfb401ad)"><g transform="matrix(1, 0, 0, 1, 0, 0)"><g clip-path="url(#89f980e38c)"><g clip-path="url(#592c95a90d)"><g clip-path="url(#e3ee8ae545)"><rect x="-136.5" width="648" fill="#ffffff" y="-136.499997" height="647.999984" fill-opacity="1"/></g></g></g></g></g></g><g clip-path="url(#7fd0cb99fa)"><path fill="#ffffff" d="M 333.90625 229.109375 C 329.949219 242.582031 323.90625 255.363281 316.410156 267.136719 C 310.21875 276.714844 303.183594 285.71875 295.273438 293.90625 C 294.25 295.027344 293.109375 296.027344 292.023438 297.082031 C 290.917969 298.121094 289.84375 299.191406 288.71875 300.203125 L 285.289062 303.183594 L 283.574219 304.675781 L 281.796875 306.089844 L 278.246094 308.925781 C 277.042969 309.847656 275.800781 310.714844 274.582031 311.617188 C 272.175781 313.460938 269.613281 315.082031 267.105469 316.785156 C 266.742188 317.03125 266.363281 317.285156 265.96875 317.550781 C 265.558594 317.796875 265.132812 318.050781 264.691406 318.316406 C 263.804688 318.847656 262.851562 319.417969 261.839844 320.023438 C 259.835938 321.28125 257.464844 322.464844 254.90625 323.828125 C 254.261719 324.160156 253.617188 324.523438 252.933594 324.847656 C 252.25 325.164062 251.554688 325.488281 250.839844 325.820312 C 249.417969 326.476562 247.945312 327.160156 246.421875 327.859375 C 243.304688 329.082031 240.054688 330.542969 236.507812 331.679688 C 222.503906 336.757812 205.03125 339.894531 187.496094 339.96875 C 169.964844 339.894531 152.488281 336.757812 138.488281 331.679688 C 134.941406 330.542969 131.691406 329.082031 128.570312 327.859375 C 127.050781 327.160156 125.578125 326.476562 124.15625 325.820312 C 123.441406 325.488281 122.746094 325.164062 122.058594 324.847656 C 121.378906 324.523438 120.734375 324.160156 120.089844 323.828125 C 117.53125 322.46875 115.160156 321.28125 113.15625 320.023438 C 112.144531 319.417969 111.191406 318.847656 110.304688 318.316406 C 109.863281 318.050781 109.4375 317.796875 109.027344 317.550781 C 108.632812 317.285156 108.253906 317.03125 107.890625 316.789062 C 98.367188 310.542969 89.414062 303.453125 81.28125 295.488281 C 72.699219 286.917969 65.199219 277.316406 58.585938 267.136719 C 51.085938 255.363281 45.046875 242.582031 41.085938 229.109375 C 36.96875 215.683594 35.0625 201.589844 34.941406 187.496094 C 35.0625 173.402344 36.96875 159.3125 41.085938 145.882812 C 45.046875 132.414062 51.085938 119.632812 58.585938 107.859375 C 64.773438 98.28125 71.8125 89.277344 79.722656 81.085938 C 80.746094 79.96875 81.886719 78.96875 82.972656 77.910156 C 84.078125 76.875 85.148438 75.804688 86.277344 74.792969 L 89.707031 71.808594 L 91.417969 70.316406 L 93.199219 68.90625 L 96.75 66.066406 C 97.953125 65.148438 99.191406 64.277344 100.410156 63.378906 C 102.820312 61.535156 105.382812 59.914062 107.890625 58.207031 C 108.25 57.964844 108.632812 57.710938 109.027344 57.445312 C 109.4375 57.199219 109.859375 56.945312 110.304688 56.675781 C 111.1875 56.148438 112.140625 55.578125 113.15625 54.972656 C 115.160156 53.714844 117.53125 52.527344 120.089844 51.167969 C 120.734375 50.835938 121.378906 50.472656 122.058594 50.148438 C 122.746094 49.828125 123.441406 49.503906 124.152344 49.175781 C 125.578125 48.519531 127.050781 47.835938 128.570312 47.132812 C 131.691406 45.914062 134.941406 44.449219 138.488281 43.316406 C 152.488281 38.238281 169.960938 35.101562 187.496094 35.027344 C 205.03125 35.101562 222.503906 38.238281 236.503906 43.316406 C 240.054688 44.449219 243.304688 45.914062 246.421875 47.132812 C 247.945312 47.835938 249.417969 48.519531 250.839844 49.175781 C 251.550781 49.503906 252.25 49.828125 252.933594 50.144531 C 253.613281 50.472656 254.257812 50.835938 254.902344 51.167969 C 257.460938 52.527344 259.835938 53.714844 261.835938 54.972656 C 262.851562 55.578125 263.804688 56.148438 264.6875 56.675781 C 265.132812 56.941406 265.558594 57.199219 265.964844 57.445312 C 266.363281 57.710938 266.742188 57.964844 267.101562 58.207031 C 276.628906 64.449219 285.578125 71.542969 293.714844 79.507812 C 302.292969 88.078125 309.792969 97.679688 316.410156 107.859375 C 323.90625 119.628906 329.949219 132.414062 333.90625 145.882812 C 338.027344 159.3125 339.933594 173.402344 340.054688 187.496094 C 339.933594 201.589844 338.027344 215.683594 333.90625 229.109375 Z M 343.5625 187.394531 L 343.558594 187.382812 C 343.429688 172.992188 341.496094 158.59375 337.300781 144.863281 C 333.269531 131.089844 327.09375 118.019531 319.398438 106.011719 L 315.695312 100.449219 C 315.695312 100.449219 314.625 98.953125 313.023438 96.710938 C 311.476562 94.421875 309.113281 91.597656 306.855469 88.699219 C 304.421875 85.941406 302.089844 83.097656 300.128906 81.15625 C 298.222656 79.167969 296.949219 77.839844 296.949219 77.839844 C 296.949219 77.839844 296.628906 77.511719 296.050781 76.957031 C 295.472656 76.398438 294.648438 75.597656 293.65625 74.644531 C 291.722656 72.671875 288.917969 70.300781 286.164062 67.867188 C 284.75 66.691406 283.296875 65.570312 281.957031 64.488281 C 281.28125 63.953125 280.628906 63.433594 280.011719 62.941406 C 279.371094 62.480469 278.765625 62.042969 278.207031 61.640625 C 275.972656 60.027344 274.480469 58.953125 274.480469 58.953125 C 274.480469 58.953125 274.15625 58.6875 273.632812 58.347656 C 273.113281 58.003906 272.417969 57.539062 271.726562 57.074219 C 270.339844 56.144531 268.953125 55.21875 268.953125 55.21875 C 268.582031 54.96875 268.195312 54.707031 267.792969 54.433594 C 267.375 54.179688 266.941406 53.917969 266.488281 53.644531 C 265.582031 53.097656 264.609375 52.515625 263.574219 51.894531 C 261.523438 50.601562 259.101562 49.382812 256.484375 47.988281 C 255.824219 47.648438 255.164062 47.277344 254.46875 46.941406 C 253.765625 46.613281 253.054688 46.28125 252.328125 45.941406 C 250.871094 45.269531 249.363281 44.570312 247.804688 43.847656 C 244.617188 42.59375 241.289062 41.101562 237.660156 39.929688 C 223.332031 34.726562 205.4375 31.503906 187.496094 31.433594 C 169.554688 31.503906 151.664062 34.726562 137.335938 39.933594 C 133.707031 41.101562 130.378906 42.597656 127.1875 43.851562 C 125.628906 44.570312 124.125 45.269531 122.667969 45.945312 C 121.941406 46.28125 121.226562 46.617188 120.527344 46.941406 C 119.828125 47.277344 119.167969 47.648438 118.511719 47.988281 C 115.890625 49.382812 113.46875 50.601562 111.421875 51.894531 C 110.382812 52.515625 109.410156 53.101562 108.503906 53.644531 C 108.054688 53.917969 107.617188 54.179688 107.203125 54.433594 C 106.796875 54.707031 106.410156 54.96875 106.039062 55.21875 C 106.039062 55.21875 104.652344 56.144531 103.265625 57.074219 C 102.574219 57.539062 101.882812 58.003906 101.363281 58.351562 C 100.835938 58.6875 100.511719 58.953125 100.511719 58.953125 C 100.511719 58.953125 99.023438 60.027344 96.789062 61.640625 C 96.226562 62.042969 95.621094 62.480469 94.984375 62.941406 C 94.363281 63.433594 93.714844 63.953125 93.039062 64.488281 C 91.695312 65.570312 90.242188 66.691406 88.832031 67.867188 C 86.078125 70.300781 83.273438 72.671875 81.339844 74.644531 C 80.347656 75.597656 79.523438 76.398438 78.945312 76.957031 C 78.363281 77.511719 78.042969 77.839844 78.042969 77.839844 C 78.042969 77.839844 76.773438 79.167969 74.867188 81.15625 C 72.90625 83.097656 70.570312 85.941406 68.140625 88.699219 C 65.882812 91.597656 63.515625 94.421875 61.972656 96.710938 C 60.367188 98.957031 59.296875 100.453125 59.296875 100.453125 L 55.597656 106.011719 C 47.898438 118.019531 41.722656 131.09375 37.691406 144.863281 C 33.5 158.59375 31.5625 172.992188 31.4375 187.382812 L 31.433594 187.394531 L 31.433594 187.601562 L 31.4375 187.613281 C 31.5625 202.003906 33.5 216.402344 37.691406 230.132812 C 41.722656 243.902344 47.898438 256.976562 55.597656 268.980469 L 59.296875 274.542969 C 59.296875 274.542969 60.367188 276.039062 61.972656 278.285156 C 63.515625 280.574219 65.882812 283.394531 68.140625 286.296875 C 70.570312 289.054688 72.90625 291.898438 74.867188 293.835938 C 76.773438 295.828125 78.042969 297.152344 78.042969 297.152344 C 78.042969 297.152344 78.363281 297.480469 78.945312 298.039062 C 79.523438 298.597656 80.347656 299.394531 81.339844 300.351562 C 83.273438 302.320312 86.078125 304.695312 88.832031 307.128906 C 90.242188 308.300781 91.695312 309.425781 93.039062 310.507812 C 93.714844 311.042969 94.363281 311.558594 94.984375 312.050781 C 95.621094 312.515625 96.226562 312.949219 96.789062 313.351562 C 99.023438 314.96875 100.511719 316.042969 100.511719 316.042969 C 100.511719 316.042969 100.835938 316.304688 101.363281 316.644531 C 101.882812 316.992188 102.574219 317.457031 103.265625 317.921875 C 104.652344 318.847656 106.039062 319.777344 106.039062 319.777344 C 106.410156 320.027344 106.796875 320.289062 107.203125 320.5625 C 107.621094 320.816406 108.054688 321.078125 108.507812 321.351562 C 109.410156 321.894531 110.386719 322.480469 111.421875 323.101562 C 113.46875 324.394531 115.894531 325.613281 118.511719 327.007812 C 119.171875 327.347656 119.832031 327.71875 120.527344 328.054688 C 121.226562 328.378906 121.941406 328.714844 122.667969 329.050781 C 124.125 329.726562 125.632812 330.425781 127.1875 331.144531 C 130.378906 332.398438 133.707031 333.894531 137.335938 335.0625 C 151.664062 340.265625 169.554688 343.492188 187.496094 343.5625 C 205.4375 343.492188 223.332031 340.265625 237.660156 335.0625 C 241.289062 333.894531 244.617188 332.398438 247.808594 331.144531 C 249.363281 330.425781 250.871094 329.726562 252.328125 329.050781 C 253.054688 328.710938 253.769531 328.378906 254.46875 328.054688 C 255.164062 327.71875 255.824219 327.347656 256.484375 327.007812 C 259.101562 325.613281 261.527344 324.394531 263.574219 323.101562 C 264.609375 322.480469 265.582031 321.894531 266.488281 321.351562 C 266.941406 321.078125 267.375 320.8125 267.792969 320.5625 C 268.199219 320.289062 268.585938 320.027344 268.957031 319.777344 C 268.957031 319.777344 270.339844 318.847656 271.726562 317.921875 C 272.421875 317.457031 273.113281 316.992188 273.632812 316.644531 C 274.15625 316.304688 274.480469 316.042969 274.480469 316.042969 C 274.480469 316.042969 275.972656 314.96875 278.207031 313.351562 C 278.765625 312.949219 279.371094 312.515625 280.011719 312.050781 C 280.628906 311.558594 281.28125 311.042969 281.957031 310.507812 C 283.296875 309.425781 284.75 308.300781 286.164062 307.128906 C 288.917969 304.695312 291.722656 302.320312 293.65625 300.351562 C 294.648438 299.394531 295.472656 298.597656 296.050781 298.039062 C 296.628906 297.480469 296.949219 297.152344 296.949219 297.152344 C 296.949219 297.152344 298.222656 295.828125 300.128906 293.835938 C 302.089844 291.898438 304.421875 289.054688 306.855469 286.296875 C 309.113281 283.394531 311.480469 280.574219 313.023438 278.285156 C 314.628906 276.039062 315.695312 274.542969 315.695312 274.542969 L 319.398438 268.980469 C 327.09375 256.976562 333.269531 243.902344 337.300781 230.132812 C 341.496094 216.402344 343.429688 202.003906 343.558594 187.613281 L 343.5625 187.601562 L 343.5625 187.394531 " fill-opacity="1" fill-rule="nonzero"/></g><path fill="#f2dea2" d="M 187.660156 60.890625 C 121.972656 60.890625 67.734375 110.636719 61.511719 175.246094 C 65.574219 171.96875 69.679688 168.304688 73.960938 164.480469 C 78.296875 160.601562 82.777344 156.601562 87.351562 152.90625 C 92.132812 149.003906 116.472656 147.574219 122.234375 153.121094 C 129.484375 160.058594 136.351562 166.375 142.652344 171.914062 C 142.738281 171.972656 142.828125 172.027344 142.914062 172.105469 C 166.265625 192.648438 178.851562 200.167969 182.707031 202.242188 C 191.613281 196.945312 204.574219 196.867188 211.988281 204.9375 C 216.761719 203.910156 221.734375 204.570312 226.289062 206.671875 C 225.726562 203.152344 225.960938 199.519531 227.070312 196.164062 C 228.546875 191.6875 232.246094 185.484375 241.457031 181.339844 C 252.210938 176.449219 264.535156 177.828125 273.929688 183.90625 C 267.460938 173.433594 258.625 168.773438 252.980469 166.777344 C 243.441406 163.359375 234.636719 164.167969 230.128906 166.496094 C 229.414062 166.867188 228.804688 167.269531 228.332031 167.695312 C 229.175781 168.695312 229.847656 170.058594 230.261719 171.683594 C 231.484375 176.488281 230.054688 182.550781 224.109375 185.234375 C 219.707031 187.21875 215.046875 186.609375 211.3125 183.5625 C 206.121094 179.328125 203.925781 171.460938 205.707031 163.515625 C 208.390625 151.503906 216.902344 145.316406 223.574219 142.242188 C 234.25 137.332031 247.730469 136.992188 256.851562 141.296875 C 269.910156 137.859375 284.902344 140.386719 297.203125 148.125 C 303.054688 151.816406 307.941406 156.480469 311.71875 161.867188 C 299.847656 103.832031 248.867188 60.890625 187.660156 60.890625 Z M 250.796875 201.144531 C 250.085938 201.242188 249.417969 201.441406 248.824219 201.714844 C 249.15625 201.910156 249.484375 202.128906 249.796875 202.375 C 252.859375 204.75 254.777344 209.605469 252.164062 215.085938 C 250.539062 218.515625 247.066406 220.894531 242.871094 221.445312 C 242.039062 221.554688 241.210938 221.554688 240.386719 221.511719 C 241.328125 223.777344 241.96875 226.140625 242.265625 228.554688 C 247.074219 228.75 252.378906 226.226562 256.242188 221.71875 C 260.371094 216.886719 261.761719 211.167969 259.992188 206.371094 C 257.847656 202.570312 254.417969 200.597656 250.796875 201.144531 " fill-opacity="1" fill-rule="nonzero"/><path fill="#ffffff" d="M 314.285156 183.6875 C 309.558594 176.96875 299.851562 175.519531 294.570312 176.738281 C 293.066406 177.082031 291.777344 177.554688 290.617188 178.175781 C 286.441406 180.324219 283.976562 184.402344 284.277344 188.59375 C 284.523438 192.015625 286.488281 194.597656 289.667969 195.691406 C 291.515625 196.3125 293.421875 195.230469 294.296875 193.867188 C 295.078125 192.679688 294.980469 191.546875 294.015625 190.519531 C 293.464844 189.925781 293.191406 189.117188 293.265625 188.3125 C 293.335938 187.5 293.753906 186.765625 294.40625 186.28125 C 297.347656 184.097656 301.390625 184.289062 304.96875 186.761719 C 308.816406 189.429688 311.972656 194.503906 313.582031 201.617188 C 314.089844 197.015625 314.371094 192.363281 314.371094 187.660156 C 314.371094 186.320312 314.335938 185.015625 314.285156 183.6875 Z M 214.921875 179.136719 C 216.355469 180.3125 218.707031 181.421875 221.757812 180.035156 C 223.585938 179.199219 224.648438 177.773438 224.898438 175.78125 C 225.160156 173.707031 224.445312 171.984375 224.007812 171.425781 C 223.304688 171.316406 222.667969 170.960938 222.207031 170.398438 C 221.621094 169.6875 221.417969 168.71875 221.667969 167.820312 C 222.398438 165.230469 224.417969 163.015625 227.511719 161.425781 C 234.121094 158.015625 244.375 157.894531 253.882812 161.058594 C 263.292969 157.875 282.546875 160.28125 290.449219 172.011719 C 291.347656 171.683594 292.292969 171.402344 293.308594 171.179688 C 297.886719 170.121094 305.457031 170.425781 311.839844 174 C 308.476562 165.460938 302.390625 158.140625 294.164062 152.957031 C 282.867188 145.855469 269.09375 143.648438 257.351562 147.078125 C 256.632812 147.28125 255.867188 147.210938 255.21875 146.855469 C 247.675781 142.847656 235.378906 143.09375 225.960938 147.429688 C 220.460938 149.960938 213.453125 155.027344 211.285156 164.761719 C 209.78125 171.425781 212.03125 176.777344 214.921875 179.136719 Z M 243.808594 186.542969 C 238.003906 189.152344 234.097656 193.09375 232.492188 197.957031 C 231.054688 202.308594 231.527344 207.285156 233.753906 211.265625 C 234.058594 211.757812 234.40625 212.355469 234.820312 212.8125 C 236.738281 215.085938 239.375 216.164062 242.136719 215.78125 C 244.359375 215.488281 246.226562 214.285156 247.003906 212.632812 C 248.34375 209.828125 247.460938 207.789062 246.296875 206.882812 C 245.6875 206.410156 245.148438 206.367188 245.023438 206.457031 C 244.085938 207.253906 242.757812 207.335938 241.707031 206.703125 C 240.660156 206.070312 240.136719 204.839844 240.402344 203.644531 C 241.355469 199.402344 245.113281 196.199219 249.976562 195.496094 C 254.726562 194.808594 261.121094 196.617188 265.042969 203.679688 C 265.058594 203.707031 265.0625 203.734375 265.082031 203.761719 C 265.082031 203.769531 265.082031 203.769531 265.082031 203.769531 C 265.363281 204.257812 265.636719 204.75 265.847656 205.234375 C 269.144531 212.410156 269.105469 221.261719 265.726562 229.445312 C 261.878906 238.777344 254.128906 246.253906 243.769531 250.6875 C 244.140625 253.527344 244.035156 256.34375 243.488281 259.0625 C 249.628906 256.765625 257.027344 256.921875 263.59375 259.757812 C 291.613281 238.410156 284.84375 208.003906 280.160156 198.898438 C 273.5 185.996094 257.1875 180.46875 243.808594 186.542969 Z M 262.859375 265.695312 C 262.777344 265.664062 262.695312 265.640625 262.613281 265.597656 C 255.015625 261.691406 245.339844 262.601562 240.109375 267.722656 L 239.515625 268.359375 C 239.234375 268.84375 238.855469 269.351562 238.417969 269.878906 C 237.398438 271.5625 236.890625 273.558594 237.027344 275.464844 C 237.195312 278.953125 239.15625 281.53125 241.699219 281.667969 C 244.40625 281.683594 245.273438 280.183594 245.578125 279.496094 C 245.976562 278.597656 246.035156 277.355469 245.289062 276.605469 C 244.527344 275.839844 244.261719 274.707031 244.597656 273.679688 C 244.941406 272.65625 245.828125 271.914062 246.902344 271.757812 C 248.960938 271.457031 250.929688 271.636719 252.621094 272.253906 C 252.621094 272.253906 252.625 272.253906 252.625 272.253906 C 252.65625 272.261719 252.691406 272.28125 252.722656 272.289062 C 257.210938 273.792969 260.261719 278.113281 260.773438 283.851562 C 260.984375 286.207031 260.734375 288.949219 259.863281 291.75 C 264.902344 288.257812 269.683594 284.390625 274.195312 280.160156 C 271.777344 271.898438 266.789062 267.75 262.859375 265.695312 Z M 237.777344 249.527344 C 237.238281 247.191406 236.332031 244.925781 235.089844 242.828125 C 234.609375 242.003906 234.566406 241.007812 234.964844 240.148438 C 236.285156 237.355469 236.90625 234.277344 236.75 231.238281 C 236.601562 225.992188 234.351562 220.726562 230.5625 216.734375 C 225.363281 211.152344 218.183594 208.914062 211.785156 210.875 C 210.640625 211.257812 209.382812 210.828125 208.652344 209.855469 C 203.21875 202.539062 191.550781 202.933594 184.5 207.863281 C 180.246094 210.804688 177.886719 215.125 177.84375 220.050781 C 177.824219 223.003906 178.820312 225.363281 180.578125 226.503906 C 181.898438 227.355469 183.480469 227.4375 185.054688 226.722656 C 185.761719 226.414062 186.402344 225.472656 186.664062 224.371094 C 186.921875 223.292969 186.710938 222.605469 186.609375 222.480469 C 185.25 221.992188 184.554688 220.617188 184.875 219.207031 C 186.050781 214.125 190.519531 210.84375 195.796875 211.195312 C 200.207031 211.375 205.222656 213.972656 207.351562 219.222656 C 212.3125 218.109375 217.714844 219.414062 222.089844 222.933594 C 230.792969 229.957031 232.496094 243.589844 225.984375 253.953125 C 222.949219 258.707031 218.597656 262.375 213.027344 264.855469 C 208.523438 266.851562 203.828125 267.722656 199.105469 267.722656 C 198.113281 267.722656 197.125 267.679688 196.132812 267.601562 C 203.25 270.585938 211.105469 272.804688 219.441406 273.441406 L 219.910156 273.441406 C 225.113281 273.441406 230.308594 270.84375 233.820312 266.480469 C 234.207031 265.902344 234.566406 265.386719 234.964844 264.929688 C 238.003906 260.433594 239.003906 254.96875 237.777344 249.527344 Z M 150.28125 264.867188 C 149.230469 267.09375 147.886719 269.050781 146.273438 270.691406 C 147.511719 271.75 148.976562 273.035156 150.640625 274.507812 C 158.941406 281.8125 171.484375 292.851562 184.445312 301.425781 L 185.023438 301.820312 C 193.65625 307.574219 201.117188 312.554688 208.511719 312.644531 C 213.746094 311.785156 218.902344 310.578125 223.957031 309.0625 C 214.296875 307.484375 203.605469 302.71875 191.449219 294.664062 C 176.71875 284.902344 160.292969 272.5625 150.28125 264.867188 Z M 160.410156 243.191406 C 160.429688 243.207031 160.449219 243.226562 160.460938 243.234375 C 160.464844 243.242188 160.472656 243.246094 160.472656 243.246094 C 161.332031 244.105469 162.09375 244.875 162.90625 245.632812 C 162.90625 245.632812 162.910156 245.632812 162.910156 245.632812 C 162.921875 245.644531 162.933594 245.652344 162.945312 245.660156 C 162.945312 245.664062 162.949219 245.664062 162.949219 245.671875 C 162.960938 245.675781 162.964844 245.6875 162.976562 245.691406 C 175.644531 257.058594 194.824219 266.660156 210.707031 259.644531 C 215.226562 257.625 218.746094 254.683594 221.152344 250.910156 C 226.144531 242.957031 224.992188 232.617188 218.511719 227.371094 C 214.179688 223.898438 209.519531 224.105469 206.621094 225.460938 C 203.390625 227.027344 201.699219 230.035156 202.132812 233.476562 C 202.488281 236.332031 203.941406 238.132812 206.039062 238.300781 C 207.449219 238.488281 209.257812 237.644531 209.867188 235.589844 C 210.226562 234.371094 211.347656 233.671875 212.632812 233.546875 C 213.914062 233.570312 215.023438 234.425781 215.359375 235.660156 C 216.515625 239.945312 214.898438 244.53125 211.027344 247.925781 C 206.179688 252.183594 197.222656 254.792969 188.160156 251.023438 C 175.894531 245.894531 167.398438 235.6875 159.90625 226.683594 C 159.125 225.75 158.371094 224.84375 157.625 223.957031 C 159.21875 229.785156 159.132812 235.296875 157.28125 239.953125 C 158.316406 241.074219 159.351562 242.167969 160.410156 243.191406 Z M 123.792969 211.703125 C 135.203125 214.648438 142.882812 221.859375 144.851562 231.488281 C 145.164062 233.03125 144.171875 234.542969 142.625 234.859375 C 142.53125 234.875 142.433594 234.875 142.34375 234.886719 C 142.242188 234.898438 142.152344 234.914062 142.054688 234.914062 C 142.042969 234.914062 142.035156 234.910156 142.027344 234.910156 C 142.007812 234.910156 141.992188 234.910156 141.976562 234.902344 C 141.945312 234.910156 141.921875 234.914062 141.890625 234.914062 C 140.507812 235.039062 139.945312 236.96875 139.890625 237.203125 C 139.542969 238.863281 139.875 242.03125 143.320312 243.386719 C 145.148438 244.082031 146.765625 243.558594 147.800781 243.007812 C 149.203125 242.246094 150.46875 240.910156 151.351562 239.265625 C 151.371094 239.222656 151.378906 239.171875 151.398438 239.128906 C 152.820312 236.410156 155.378906 228.796875 148.375 216.714844 C 147.546875 215.285156 146.621094 213.980469 145.613281 212.832031 C 145.609375 212.824219 145.605469 212.8125 145.597656 212.808594 C 145.585938 212.796875 145.578125 212.792969 145.570312 212.78125 C 133.851562 198.785156 108.496094 193.605469 86.601562 200.757812 C 78.15625 203.519531 70.433594 207.890625 63.589844 213.710938 C 64.648438 218.792969 66.027344 223.84375 67.734375 228.792969 C 84.84375 211.566406 108.34375 207.6875 123.792969 211.703125 Z M 146.835938 249.257812 C 146.257812 249.351562 145.679688 249.410156 145.101562 249.410156 C 143.800781 249.410156 142.515625 249.183594 141.28125 248.714844 C 135.152344 246.3125 133.378906 240.464844 134.304688 236.035156 C 134.65625 234.34375 135.382812 232.925781 136.351562 231.816406 C 127.9375 226.964844 118.40625 225.351562 108.773438 226.984375 C 115.570312 228.0625 121.859375 230.902344 126.902344 235.382812 C 134.390625 242.042969 137.636719 251.324219 135.589844 260.21875 C 135.289062 261.523438 134.058594 262.167969 132.769531 262.429688 C 131.421875 262.410156 130.273438 261.457031 130.007812 260.140625 C 129.761719 258.929688 128.628906 258.445312 127.730469 258.398438 C 127.132812 258.3125 125.109375 258.453125 124.222656 261.195312 C 123.503906 263.390625 124.152344 265.210938 124.816406 266.355469 C 126.515625 269.457031 130.027344 271.121094 133.863281 270.613281 C 136.28125 270.335938 138.40625 269.574219 140.222656 268.34375 C 143.066406 266.421875 145.085938 263.445312 146.214844 259.523438 C 147.058594 256.453125 147.257812 252.941406 146.835938 249.257812 Z M 72.597656 177.601562 C 74.351562 177.90625 75.8125 178.6875 76.929688 179.867188 C 83.40625 174.234375 89.480469 171.9375 93.957031 173.554688 C 94.988281 173.921875 95.882812 174.507812 96.617188 175.253906 C 99.90625 171.171875 103.34375 169.164062 107.023438 169.132812 L 107.109375 169.132812 C 111.402344 169.132812 115.476562 171.871094 119.507812 177.480469 C 121.070312 176.125 122.941406 175.34375 125.050781 175.226562 C 128.3125 175.0625 131.6875 176.449219 134.808594 178.472656 C 134.832031 177.808594 134.898438 177.160156 135.070312 176.546875 C 135.289062 175.777344 135.691406 174.871094 136.40625 174.003906 C 130.730469 168.945312 124.664062 163.347656 118.28125 157.242188 C 115.074219 154.15625 94.050781 154.800781 90.945312 157.335938 C 86.476562 160.949219 82.046875 164.90625 77.761719 168.734375 C 74.144531 171.96875 70.648438 175.089844 67.167969 177.988281 C 69.054688 177.492188 70.925781 177.300781 72.597656 177.601562 Z M 130.414062 253.160156 C 129.945312 248.21875 127.429688 243.492188 123.105469 239.648438 C 116.5 233.769531 104.34375 229.328125 89.972656 234.375 C 84.710938 237.703125 79.890625 241.921875 75.609375 246.929688 C 76.710938 248.996094 77.773438 250.882812 78.824219 252.628906 C 85.371094 245.734375 94.933594 242.9375 102.175781 243.296875 C 109.257812 243.65625 114.882812 246.738281 117.621094 251.757812 C 118.03125 252.503906 118.078125 253.398438 117.765625 254.1875 C 117.441406 254.984375 116.785156 255.585938 115.972656 255.84375 C 112.714844 256.871094 112.078125 259.226562 111.980469 260.527344 C 111.816406 262.777344 112.988281 264.964844 114.824219 265.90625 C 114.867188 265.929688 114.910156 265.953125 114.953125 265.980469 C 116 266.453125 117.25 266.527344 118.625 266.195312 C 118.03125 264 118.0625 261.664062 118.792969 259.425781 C 120.203125 255.097656 123.929688 252.449219 128.058594 252.695312 C 128.878906 252.746094 129.675781 252.902344 130.414062 253.160156 " fill-opacity="1" fill-rule="nonzero"/><path fill="#27498c" d="M 301.714844 191.449219 C 301.410156 191.242188 300.933594 190.941406 300.375 190.730469 C 300.804688 192.800781 300.382812 194.988281 299.082031 196.984375 C 298.15625 198.414062 296.894531 199.546875 295.476562 200.332031 C 299.179688 204.1875 301.808594 209.875 303.082031 216.949219 C 304.378906 224.085938 304.199219 232.726562 302.21875 241.84375 C 303.484375 239.152344 304.671875 236.40625 305.757812 233.605469 C 305.773438 233.53125 305.785156 233.453125 305.804688 233.382812 C 313.246094 207.625 306.378906 194.691406 301.714844 191.449219 Z M 263.527344 165.527344 C 268.980469 168.863281 274.949219 174.101562 279.621094 182.238281 C 280.753906 179.316406 282.746094 176.703125 285.40625 174.730469 C 280.660156 168.140625 271.054688 165.652344 263.527344 165.527344 Z M 250.800781 281.792969 C 249.214844 285.421875 245.632812 287.507812 241.417969 287.371094 C 236.792969 287.113281 233.09375 283.695312 231.808594 278.863281 C 229.234375 279.164062 226.722656 279.3125 224.25 279.3125 C 222.757812 279.3125 221.277344 279.257812 219.796875 279.152344 L 219.277344 279.152344 C 219.273438 279.152344 219.261719 279.148438 219.257812 279.148438 C 219.191406 279.148438 219.125 279.148438 219.066406 279.148438 C 219.054688 279.148438 219.054688 279.140625 219.050781 279.140625 C 218.640625 279.136719 218.199219 279.113281 217.8125 279.039062 C 217.769531 279.03125 217.738281 279.011719 217.695312 279 C 210.378906 278.304688 203.441406 276.527344 197.03125 274.109375 C 209.207031 283.015625 222.121094 290.386719 233.5 292.023438 C 242.070312 293.273438 248.125 291.292969 250.496094 286.429688 C 251.46875 284.441406 251.628906 282.242188 251.28125 280.390625 C 251.15625 280.863281 251.007812 281.332031 250.800781 281.792969 Z M 206.808594 244.019531 C 206.398438 244.042969 205.984375 244.027344 205.558594 243.988281 C 201.882812 243.683594 197.304688 240.925781 196.46875 234.179688 C 195.828125 229.042969 197.984375 224.347656 202.179688 221.460938 C 201.066406 218.566406 198.125 217.003906 195.566406 216.898438 C 194.695312 216.824219 192.347656 216.953125 191.085938 218.925781 C 191.933594 220.003906 192.433594 221.433594 192.488281 223.078125 C 192.597656 226.324219 190.878906 230.40625 187.375 231.941406 C 184.046875 233.445312 180.421875 233.210938 177.464844 231.292969 C 174.042969 229.066406 172.09375 224.941406 172.136719 219.996094 C 172.179688 214.644531 174.203125 209.835938 177.855469 206.066406 C 172.257812 202.789062 160.359375 194.90625 140.714844 177.757812 C 140.621094 177.898438 140.582031 178.023438 140.5625 178.105469 C 140.183594 179.417969 141.121094 182.714844 144.988281 187.667969 C 145.390625 188.109375 145.921875 188.753906 146.453125 189.394531 C 147.457031 190.617188 147.292969 192.433594 146.078125 193.429688 C 145.542969 193.878906 144.894531 194.097656 144.253906 194.097656 C 143.441406 194.097656 142.636719 193.746094 142.082031 193.066406 L 142.042969 193.023438 C 141.5625 192.441406 141.089844 191.863281 140.609375 191.328125 C 140.605469 191.320312 140.597656 191.3125 140.59375 191.300781 C 140.589844 191.300781 140.582031 191.296875 140.582031 191.292969 C 134.855469 184.683594 129.054688 180.6875 125.378906 180.921875 C 124.273438 180.988281 123.402344 181.484375 122.644531 182.4375 C 123.375 183.710938 124.082031 185.027344 124.757812 186.410156 C 125.449219 187.828125 124.867188 189.53125 123.445312 190.222656 C 122.042969 190.910156 120.316406 190.328125 119.625 188.90625 C 118.597656 186.796875 117.503906 184.820312 116.359375 183.03125 C 112.992188 177.664062 109.796875 174.839844 107.105469 174.839844 L 107.074219 174.839844 C 104.496094 174.859375 101.550781 177.496094 98.550781 182.457031 C 97.914062 183.519531 96.6875 184.058594 95.460938 183.765625 C 94.257812 183.476562 93.371094 182.457031 93.261719 181.226562 C 93.097656 179.316406 92.269531 179.015625 92 178.914062 C 89.835938 178.121094 84.617188 180.097656 78.3125 186.375 C 75.8125 188.820312 73.269531 191.824219 70.742188 195.320312 C 70.179688 196.09375 69.308594 196.503906 68.425781 196.503906 C 67.84375 196.503906 67.261719 196.335938 66.753906 195.964844 C 65.476562 195.042969 65.1875 193.257812 66.113281 191.976562 C 68.347656 188.894531 70.59375 186.171875 72.832031 183.824219 C 72.5 183.464844 72.09375 183.300781 71.613281 183.21875 C 68.554688 182.703125 63.050781 185.554688 60.894531 187.839844 C 60.90625 194.472656 61.425781 200.992188 62.414062 207.308594 C 68.988281 202.171875 76.269531 198.234375 84.132812 195.578125 C 87.363281 192.195312 89.832031 187.886719 89.859375 187.84375 C 90.632812 186.472656 92.375 185.996094 93.746094 186.769531 C 95.117188 187.554688 95.597656 189.292969 94.820312 190.664062 C 94.769531 190.757812 94.199219 191.742188 93.265625 193.152344 C 114.964844 188.910156 137.484375 194.832031 149.445312 208.539062 C 154.523438 211.3125 159.0625 216.746094 164.296875 223.03125 C 171.371094 231.53125 179.386719 241.171875 190.355469 245.757812 C 196.855469 248.457031 203.191406 246.863281 206.808594 244.019531 Z M 155.898438 200.761719 C 155.335938 201.492188 154.492188 201.871094 153.640625 201.871094 C 153.027344 201.871094 152.417969 201.675781 151.894531 201.273438 C 150.980469 200.566406 150.476562 200.058594 150.476562 200.058594 C 149.378906 198.941406 149.382812 197.136719 150.5 196.023438 C 151.609375 194.921875 153.402344 194.921875 154.503906 196.011719 C 154.5625 196.0625 154.867188 196.363281 155.386719 196.757812 C 156.632812 197.722656 156.859375 199.519531 155.898438 200.761719 Z M 112.285156 271.023438 C 108.847656 269.070312 105.53125 267.578125 102.320312 266.539062 C 111.554688 272.863281 120.21875 282.867188 127.789062 291.617188 C 132.386719 296.933594 136.726562 301.9375 140.445312 305.277344 C 148.191406 308.382812 156.160156 310.691406 164.289062 312.207031 C 156.730469 307.855469 148.824219 301.597656 140.070312 293.132812 C 129.144531 282.589844 120.3125 275.558594 112.285156 271.023438 Z M 106.285156 260.117188 C 106.523438 256.808594 108.125 254.007812 110.722656 252.144531 C 108.640625 250.300781 105.570312 249.183594 101.894531 249.003906 C 95.566406 248.671875 87.242188 251.269531 82.003906 257.644531 C 82.523438 258.4375 83.046875 259.210938 83.585938 259.964844 C 90.84375 258.257812 98.34375 258.882812 106.292969 261.882812 C 106.25 261.300781 106.246094 260.710938 106.285156 260.117188 " fill-opacity="1" fill-rule="nonzero"/><path fill="#0477bf" d="M 297.472656 217.960938 C 295.976562 209.695312 292.320312 203.675781 287.449219 201.441406 C 287.398438 201.425781 287.355469 201.410156 287.3125 201.386719 C 291.726562 214.851562 294.046875 242.332031 268.9375 262.824219 C 273.226562 265.972656 276.539062 270.363281 278.636719 275.667969 C 295.484375 256.644531 300.265625 233.425781 297.472656 217.960938 Z M 242.773438 234.277344 C 242.636719 234.277344 242.5 234.253906 242.363281 234.253906 C 242.15625 236.617188 241.625 238.972656 240.726562 241.214844 C 241.378906 242.453125 241.929688 243.730469 242.398438 245.042969 C 250.925781 241.167969 257.285156 234.941406 260.449219 227.269531 C 260.847656 226.292969 261.179688 225.3125 261.46875 224.328125 C 261.179688 224.699219 260.886719 225.066406 260.578125 225.425781 C 255.777344 231.035156 249.105469 234.277344 242.773438 234.277344 Z M 238.199219 298.089844 C 236.515625 298.09375 234.679688 297.964844 232.679688 297.675781 C 216.261719 295.316406 195.679688 282.511719 167.917969 257.390625 C 167.824219 257.320312 167.765625 257.265625 167.6875 257.199219 C 164.828125 254.992188 162.007812 252.59375 159.0625 249.847656 C 159.050781 249.835938 159.039062 249.824219 159.027344 249.816406 C 158.199219 249.046875 157.425781 248.273438 156.652344 247.5 C 156.546875 247.414062 156.445312 247.308594 156.347656 247.199219 C 155.628906 246.503906 154.917969 245.773438 154.214844 245.035156 C 153.609375 245.707031 152.972656 246.347656 152.277344 246.886719 C 152.949219 251.160156 152.917969 255.328125 152.167969 259.117188 C 161.886719 266.617188 179.199219 279.699219 194.609375 289.902344 C 214.824219 303.3125 230.3125 306.976562 243.339844 301.472656 C 243.371094 301.453125 243.558594 301.367188 243.722656 301.296875 C 244.234375 301.039062 244.75 300.78125 245.261719 300.496094 C 245.382812 300.417969 245.511719 300.355469 245.644531 300.285156 C 245.660156 300.277344 245.671875 300.273438 245.679688 300.261719 C 249.851562 298.035156 252.390625 294.917969 253.773438 291.777344 C 251.34375 294.734375 246.714844 298.089844 238.199219 298.089844 Z M 181.28125 306.183594 C 168.007812 297.390625 154.78125 285.75 146.867188 278.792969 C 144.726562 276.902344 142.933594 275.328125 141.558594 274.167969 C 139.429688 275.273438 137.085938 275.988281 134.554688 276.28125 C 133.863281 276.371094 133.179688 276.414062 132.507812 276.414062 C 131.5 276.414062 130.519531 276.289062 129.558594 276.101562 C 134.027344 279.714844 138.808594 283.984375 144.035156 289.03125 C 162.15625 306.546875 176.167969 314.113281 190.894531 314.3125 L 190.910156 314.3125 C 191.894531 314.300781 192.8125 314.253906 193.660156 314.203125 L 193.660156 314.214844 C 193.863281 314.210938 194.046875 314.203125 194.210938 314.203125 C 190.125 312.078125 186.046875 309.363281 181.859375 306.570312 Z M 135.671875 225.0625 C 132.71875 221.425781 128.191406 218.734375 122.367188 217.230469 C 107.492188 213.390625 84.976562 218.265625 69.96875 234.789062 C 70.839844 236.988281 71.804688 239.207031 72.855469 241.433594 C 77.164062 236.707031 81.9375 232.671875 87.117188 229.417969 C 87.152344 229.398438 87.1875 229.386719 87.222656 229.363281 C 87.226562 229.363281 87.226562 229.359375 87.234375 229.359375 C 87.253906 229.347656 87.269531 229.335938 87.292969 229.328125 C 87.304688 229.320312 87.308594 229.308594 87.320312 229.304688 C 87.332031 229.292969 87.347656 229.292969 87.359375 229.289062 C 103.019531 219.535156 120.792969 218.164062 135.671875 225.0625 Z M 88.300781 266.273438 C 98.734375 279.445312 111.582031 290.351562 126.140625 298.425781 C 125.261719 297.417969 124.375 296.402344 123.476562 295.359375 C 113.035156 283.292969 100.441406 268.703125 88.300781 266.273438 " fill-opacity="1" fill-rule="nonzero"/><g clip-path="url(#ebccaafb90)"><path fill="#112140" d="M 320.082031 187.660156 C 320.082031 186.183594 320.035156 184.738281 319.980469 183.269531 C 320.003906 183.136719 320.027344 183.007812 320.027344 182.867188 C 320.027344 182.699219 319.992188 182.523438 319.960938 182.355469 C 317.140625 111.039062 259.03125 55.183594 187.660156 55.183594 C 116.820312 55.183594 58.707031 110.554688 55.363281 181.1875 C 55.238281 183.023438 55.183594 184.914062 55.183594 186.742188 L 55.183594 187.660156 C 55.183594 196.394531 56.011719 204.972656 57.628906 213.140625 C 59.066406 220.609375 61.207031 228.03125 63.984375 235.179688 C 65.570312 239.359375 67.476562 243.621094 69.652344 247.871094 C 69.660156 247.882812 69.664062 247.890625 69.667969 247.902344 C 71.933594 252.28125 73.988281 255.839844 76.097656 259.023438 C 77.335938 261.035156 78.703125 263.042969 80.085938 264.894531 C 94.722656 285.242188 114.675781 300.953125 137.785156 310.332031 L 137.789062 310.328125 C 137.8125 310.332031 137.839844 310.347656 137.859375 310.359375 L 137.84375 310.398438 C 153.707031 316.816406 170.472656 320.082031 187.660156 320.082031 C 188.800781 320.082031 189.875 320.082031 190.855469 320.019531 C 191.902344 320.019531 193.007812 320.007812 193.765625 319.910156 C 193.808594 319.910156 193.851562 319.910156 193.894531 319.90625 C 194.449219 319.90625 195.042969 319.894531 195.609375 319.839844 L 195.609375 319.847656 C 200.566406 319.53125 205.011719 319.027344 209.183594 318.328125 C 209.207031 318.320312 209.234375 318.316406 209.269531 318.308594 C 209.285156 318.304688 209.300781 318.304688 209.316406 318.300781 C 221.925781 316.242188 234.125 312.339844 245.582031 306.710938 C 245.746094 306.644531 246.078125 306.519531 246.230469 306.425781 C 246.238281 306.421875 246.238281 306.421875 246.242188 306.421875 L 246.242188 306.417969 L 247.652344 305.746094 C 247.882812 305.632812 248.246094 305.453125 248.644531 305.152344 C 259.8125 299.414062 270.152344 292.015625 279.367188 283.148438 L 279.355469 283.144531 C 279.582031 282.980469 279.804688 282.796875 279.859375 282.65625 C 293.699219 269.273438 304.226562 253.402344 311.152344 235.496094 L 311.148438 235.492188 C 311.21875 235.3125 311.28125 235.117188 311.316406 234.914062 C 317.121094 219.960938 320.082031 204.066406 320.082031 187.660156 Z M 249.796875 202.375 C 249.484375 202.128906 249.15625 201.910156 248.824219 201.714844 C 249.417969 201.441406 250.085938 201.242188 250.796875 201.144531 C 254.417969 200.597656 257.847656 202.570312 259.992188 206.371094 C 261.761719 211.167969 260.371094 216.886719 256.242188 221.71875 C 252.378906 226.226562 247.074219 228.75 242.265625 228.554688 C 241.96875 226.140625 241.328125 223.777344 240.386719 221.511719 C 241.210938 221.554688 242.039062 221.554688 242.871094 221.445312 C 247.066406 220.894531 250.539062 218.515625 252.164062 215.085938 C 254.777344 209.605469 252.859375 204.75 249.796875 202.375 Z M 242.363281 234.253906 C 242.5 234.253906 242.636719 234.277344 242.773438 234.277344 C 249.105469 234.277344 255.777344 231.035156 260.578125 225.425781 C 260.886719 225.066406 261.179688 224.699219 261.46875 224.328125 C 261.179688 225.3125 260.847656 226.292969 260.449219 227.269531 C 257.285156 234.941406 250.925781 241.167969 242.398438 245.042969 C 241.929688 243.730469 241.378906 242.453125 240.726562 241.214844 C 241.625 238.972656 242.15625 236.617188 242.363281 234.253906 Z M 243.769531 250.6875 C 254.128906 246.253906 261.878906 238.777344 265.726562 229.445312 C 269.105469 221.261719 269.144531 212.410156 265.847656 205.234375 C 265.636719 204.75 265.363281 204.257812 265.082031 203.769531 C 265.082031 203.769531 265.082031 203.769531 265.082031 203.761719 C 265.0625 203.734375 265.058594 203.707031 265.042969 203.679688 C 261.121094 196.617188 254.726562 194.808594 249.976562 195.496094 C 245.113281 196.199219 241.355469 199.402344 240.402344 203.644531 C 240.136719 204.839844 240.660156 206.070312 241.707031 206.703125 C 242.757812 207.335938 244.085938 207.253906 245.023438 206.457031 C 245.148438 206.367188 245.6875 206.410156 246.296875 206.882812 C 247.460938 207.789062 248.34375 209.828125 247.003906 212.632812 C 246.226562 214.285156 244.359375 215.488281 242.136719 215.78125 C 239.375 216.164062 236.738281 215.085938 234.820312 212.8125 C 234.40625 212.355469 234.058594 211.757812 233.753906 211.265625 C 231.527344 207.285156 231.054688 202.308594 232.492188 197.957031 C 234.097656 193.09375 238.003906 189.152344 243.808594 186.542969 C 257.1875 180.46875 273.5 185.996094 280.160156 198.898438 C 284.84375 208.003906 291.613281 238.410156 263.59375 259.757812 C 257.027344 256.921875 249.628906 256.765625 243.488281 259.0625 C 244.035156 256.34375 244.140625 253.527344 243.769531 250.6875 Z M 234.964844 264.929688 C 234.566406 265.386719 234.207031 265.902344 233.820312 266.480469 C 230.308594 270.84375 225.113281 273.441406 219.910156 273.441406 L 219.441406 273.441406 C 211.105469 272.804688 203.25 270.585938 196.132812 267.601562 C 197.125 267.679688 198.113281 267.722656 199.105469 267.722656 C 203.828125 267.722656 208.523438 266.851562 213.027344 264.855469 C 218.597656 262.375 222.949219 258.707031 225.984375 253.953125 C 232.496094 243.589844 230.792969 229.957031 222.089844 222.933594 C 217.714844 219.414062 212.3125 218.109375 207.351562 219.222656 C 205.222656 213.972656 200.207031 211.375 195.796875 211.195312 C 190.519531 210.84375 186.050781 214.125 184.875 219.207031 C 184.554688 220.617188 185.25 221.992188 186.609375 222.480469 C 186.710938 222.605469 186.921875 223.292969 186.664062 224.371094 C 186.402344 225.472656 185.761719 226.414062 185.054688 226.722656 C 183.480469 227.4375 181.898438 227.355469 180.578125 226.503906 C 178.820312 225.363281 177.824219 223.003906 177.84375 220.050781 C 177.886719 215.125 180.246094 210.804688 184.5 207.863281 C 191.550781 202.933594 203.21875 202.539062 208.652344 209.855469 C 209.382812 210.828125 210.640625 211.257812 211.785156 210.875 C 218.183594 208.914062 225.363281 211.152344 230.5625 216.734375 C 234.351562 220.726562 236.601562 225.992188 236.75 231.238281 C 236.90625 234.277344 236.285156 237.355469 234.964844 240.148438 C 234.566406 241.007812 234.609375 242.003906 235.089844 242.828125 C 236.332031 244.925781 237.238281 247.191406 237.777344 249.527344 C 239.003906 254.96875 238.003906 260.433594 234.964844 264.929688 Z M 241.417969 287.371094 C 245.632812 287.507812 249.214844 285.421875 250.800781 281.792969 C 251.007812 281.332031 251.15625 280.863281 251.28125 280.390625 C 251.628906 282.242188 251.46875 284.441406 250.496094 286.429688 C 248.125 291.292969 242.070312 293.273438 233.5 292.023438 C 222.121094 290.386719 209.207031 283.015625 197.03125 274.109375 C 203.441406 276.527344 210.378906 278.304688 217.695312 279 C 217.738281 279.011719 217.769531 279.03125 217.8125 279.039062 C 218.199219 279.113281 218.640625 279.136719 219.050781 279.140625 C 219.054688 279.140625 219.054688 279.148438 219.066406 279.148438 C 219.125 279.148438 219.191406 279.148438 219.257812 279.148438 C 219.261719 279.148438 219.273438 279.152344 219.277344 279.152344 L 219.796875 279.152344 C 221.277344 279.257812 222.757812 279.3125 224.25 279.3125 C 226.722656 279.3125 229.234375 279.164062 231.808594 278.863281 C 233.09375 283.695312 236.792969 287.113281 241.417969 287.371094 Z M 157.625 223.957031 C 158.371094 224.84375 159.125 225.75 159.90625 226.683594 C 167.398438 235.6875 175.894531 245.894531 188.160156 251.023438 C 197.222656 254.792969 206.179688 252.183594 211.027344 247.925781 C 214.898438 244.53125 216.515625 239.945312 215.359375 235.660156 C 215.023438 234.425781 213.914062 233.570312 212.632812 233.546875 C 211.347656 233.671875 210.226562 234.371094 209.867188 235.589844 C 209.257812 237.644531 207.449219 238.488281 206.039062 238.300781 C 203.941406 238.132812 202.488281 236.332031 202.132812 233.476562 C 201.699219 230.035156 203.390625 227.027344 206.621094 225.460938 C 209.519531 224.105469 214.179688 223.898438 218.511719 227.371094 C 224.992188 232.617188 226.144531 242.957031 221.152344 250.910156 C 218.746094 254.683594 215.226562 257.625 210.707031 259.644531 C 194.824219 266.660156 175.644531 257.058594 162.976562 245.691406 C 162.964844 245.6875 162.960938 245.675781 162.949219 245.671875 C 162.949219 245.664062 162.945312 245.664062 162.945312 245.660156 C 162.933594 245.652344 162.921875 245.644531 162.910156 245.632812 C 162.910156 245.632812 162.90625 245.632812 162.90625 245.632812 C 162.09375 244.875 161.332031 244.105469 160.472656 243.246094 C 160.472656 243.246094 160.464844 243.242188 160.460938 243.234375 C 160.449219 243.226562 160.429688 243.207031 160.410156 243.191406 C 159.351562 242.167969 158.316406 241.074219 157.28125 239.953125 C 159.132812 235.296875 159.21875 229.785156 157.625 223.957031 Z M 279.621094 182.238281 C 274.949219 174.101562 268.980469 168.863281 263.527344 165.527344 C 271.054688 165.652344 280.660156 168.140625 285.40625 174.730469 C 282.746094 176.703125 280.753906 179.316406 279.621094 182.238281 Z M 253.882812 161.058594 C 244.375 157.894531 234.121094 158.015625 227.511719 161.425781 C 224.417969 163.015625 222.398438 165.230469 221.667969 167.820312 C 221.417969 168.71875 221.621094 169.6875 222.207031 170.398438 C 222.667969 170.960938 223.304688 171.316406 224.007812 171.425781 C 224.445312 171.984375 225.160156 173.707031 224.898438 175.78125 C 224.648438 177.773438 223.585938 179.199219 221.757812 180.035156 C 218.707031 181.421875 216.355469 180.3125 214.921875 179.136719 C 212.03125 176.777344 209.78125 171.425781 211.285156 164.761719 C 213.453125 155.027344 220.460938 149.960938 225.960938 147.429688 C 235.378906 143.09375 247.675781 142.847656 255.21875 146.855469 C 255.867188 147.210938 256.632812 147.28125 257.351562 147.078125 C 269.09375 143.648438 282.867188 145.855469 294.164062 152.957031 C 302.390625 158.140625 308.476562 165.460938 311.839844 174 C 305.457031 170.425781 297.886719 170.121094 293.308594 171.179688 C 292.292969 171.402344 291.347656 171.683594 290.449219 172.011719 C 282.546875 160.28125 263.292969 157.875 253.882812 161.058594 Z M 187.660156 60.890625 C 248.867188 60.890625 299.847656 103.832031 311.71875 161.867188 C 307.941406 156.480469 303.054688 151.816406 297.203125 148.125 C 284.902344 140.386719 269.910156 137.859375 256.851562 141.296875 C 247.730469 136.992188 234.25 137.332031 223.574219 142.242188 C 216.902344 145.316406 208.390625 151.503906 205.707031 163.515625 C 203.925781 171.460938 206.121094 179.328125 211.3125 183.5625 C 215.046875 186.609375 219.707031 187.21875 224.109375 185.234375 C 230.054688 182.550781 231.484375 176.488281 230.261719 171.683594 C 229.847656 170.058594 229.175781 168.695312 228.332031 167.695312 C 228.804688 167.269531 229.414062 166.867188 230.128906 166.496094 C 234.636719 164.167969 243.441406 163.359375 252.980469 166.777344 C 258.625 168.773438 267.460938 173.433594 273.929688 183.90625 C 264.535156 177.828125 252.210938 176.449219 241.457031 181.339844 C 232.246094 185.484375 228.546875 191.6875 227.070312 196.164062 C 225.960938 199.519531 225.726562 203.152344 226.289062 206.671875 C 221.734375 204.570312 216.761719 203.910156 211.988281 204.9375 C 204.574219 196.867188 191.613281 196.945312 182.707031 202.242188 C 178.851562 200.167969 166.265625 192.648438 142.914062 172.105469 C 142.828125 172.027344 142.738281 171.972656 142.652344 171.914062 C 136.351562 166.375 129.484375 160.058594 122.234375 153.121094 C 116.472656 147.574219 92.132812 149.003906 87.351562 152.90625 C 82.777344 156.601562 78.296875 160.601562 73.960938 164.480469 C 69.679688 168.304688 65.574219 171.96875 61.511719 175.246094 C 67.734375 110.636719 121.972656 60.890625 187.660156 60.890625 Z M 136.40625 174.003906 C 135.691406 174.871094 135.289062 175.777344 135.070312 176.546875 C 134.898438 177.160156 134.832031 177.808594 134.808594 178.472656 C 131.6875 176.449219 128.3125 175.0625 125.050781 175.226562 C 122.941406 175.34375 121.070312 176.125 119.507812 177.480469 C 115.476562 171.871094 111.402344 169.132812 107.109375 169.132812 L 107.023438 169.132812 C 103.34375 169.164062 99.90625 171.171875 96.617188 175.253906 C 95.882812 174.507812 94.988281 173.921875 93.957031 173.554688 C 89.480469 171.9375 83.40625 174.234375 76.929688 179.867188 C 75.8125 178.6875 74.351562 177.90625 72.597656 177.601562 C 70.925781 177.300781 69.054688 177.492188 67.167969 177.988281 C 70.648438 175.089844 74.144531 171.96875 77.761719 168.734375 C 82.046875 164.90625 86.476562 160.949219 90.945312 157.335938 C 94.050781 154.800781 115.074219 154.15625 118.28125 157.242188 C 124.664062 163.347656 130.730469 168.945312 136.40625 174.003906 Z M 60.894531 187.839844 C 63.050781 185.554688 68.554688 182.703125 71.613281 183.21875 C 72.09375 183.300781 72.5 183.464844 72.832031 183.824219 C 70.59375 186.171875 68.347656 188.894531 66.113281 191.976562 C 65.1875 193.257812 65.476562 195.042969 66.753906 195.964844 C 67.261719 196.335938 67.84375 196.503906 68.425781 196.503906 C 69.308594 196.503906 70.179688 196.09375 70.742188 195.320312 C 73.269531 191.824219 75.8125 188.820312 78.3125 186.375 C 84.617188 180.097656 89.835938 178.121094 92 178.914062 C 92.269531 179.015625 93.097656 179.316406 93.261719 181.226562 C 93.371094 182.457031 94.257812 183.476562 95.460938 183.765625 C 96.6875 184.058594 97.914062 183.519531 98.550781 182.457031 C 101.550781 177.496094 104.496094 174.859375 107.074219 174.839844 L 107.105469 174.839844 C 109.796875 174.839844 112.992188 177.664062 116.359375 183.03125 C 117.503906 184.820312 118.597656 186.796875 119.625 188.90625 C 120.316406 190.328125 122.042969 190.910156 123.445312 190.222656 C 124.867188 189.53125 125.449219 187.828125 124.757812 186.410156 C 124.082031 185.027344 123.375 183.710938 122.644531 182.4375 C 123.402344 181.484375 124.273438 180.988281 125.378906 180.921875 C 129.054688 180.6875 134.855469 184.683594 140.582031 191.292969 C 140.582031 191.296875 140.589844 191.300781 140.59375 191.300781 C 140.597656 191.3125 140.605469 191.320312 140.609375 191.328125 C 141.089844 191.863281 141.5625 192.441406 142.042969 193.023438 L 142.082031 193.066406 C 142.636719 193.746094 143.441406 194.097656 144.253906 194.097656 C 144.894531 194.097656 145.542969 193.878906 146.078125 193.429688 C 147.292969 192.433594 147.457031 190.617188 146.453125 189.394531 C 145.921875 188.753906 145.390625 188.109375 144.988281 187.667969 C 141.121094 182.714844 140.183594 179.417969 140.5625 178.105469 C 140.582031 178.023438 140.621094 177.898438 140.714844 177.757812 C 160.359375 194.90625 172.257812 202.789062 177.855469 206.066406 C 174.203125 209.835938 172.179688 214.644531 172.136719 219.996094 C 172.09375 224.941406 174.042969 229.066406 177.464844 231.292969 C 180.421875 233.210938 184.046875 233.445312 187.375 231.941406 C 190.878906 230.40625 192.597656 226.324219 192.488281 223.078125 C 192.433594 221.433594 191.933594 220.003906 191.085938 218.925781 C 192.347656 216.953125 194.695312 216.824219 195.566406 216.898438 C 198.125 217.003906 201.066406 218.566406 202.179688 221.460938 C 197.984375 224.347656 195.828125 229.042969 196.46875 234.179688 C 197.304688 240.925781 201.882812 243.683594 205.558594 243.988281 C 205.984375 244.027344 206.398438 244.042969 206.808594 244.019531 C 203.191406 246.863281 196.855469 248.457031 190.355469 245.757812 C 179.386719 241.171875 171.371094 231.53125 164.296875 223.03125 C 159.0625 216.746094 154.523438 211.3125 149.445312 208.539062 C 137.484375 194.832031 114.964844 188.910156 93.265625 193.152344 C 94.199219 191.742188 94.769531 190.757812 94.820312 190.664062 C 95.597656 189.292969 95.117188 187.554688 93.746094 186.769531 C 92.375 185.996094 90.632812 186.472656 89.859375 187.84375 C 89.832031 187.886719 87.363281 192.195312 84.132812 195.578125 C 76.269531 198.234375 68.988281 202.171875 62.414062 207.308594 C 61.425781 200.992188 60.90625 194.472656 60.894531 187.839844 Z M 67.734375 228.792969 C 66.027344 223.84375 64.648438 218.792969 63.589844 213.710938 C 70.433594 207.890625 78.15625 203.519531 86.601562 200.757812 C 108.496094 193.605469 133.851562 198.785156 145.570312 212.78125 C 145.578125 212.792969 145.585938 212.796875 145.597656 212.808594 C 145.605469 212.8125 145.609375 212.824219 145.613281 212.832031 C 146.621094 213.980469 147.546875 215.285156 148.375 216.714844 C 155.378906 228.796875 152.820312 236.410156 151.398438 239.128906 C 151.378906 239.171875 151.371094 239.222656 151.351562 239.265625 C 150.46875 240.910156 149.203125 242.246094 147.800781 243.007812 C 146.765625 243.558594 145.148438 244.082031 143.320312 243.386719 C 139.875 242.03125 139.542969 238.863281 139.890625 237.203125 C 139.945312 236.96875 140.507812 235.039062 141.890625 234.914062 C 141.921875 234.914062 141.945312 234.910156 141.976562 234.902344 C 141.992188 234.910156 142.007812 234.910156 142.027344 234.910156 C 142.035156 234.910156 142.042969 234.914062 142.054688 234.914062 C 142.152344 234.914062 142.242188 234.898438 142.34375 234.886719 C 142.433594 234.875 142.53125 234.875 142.625 234.859375 C 144.171875 234.542969 145.164062 233.03125 144.851562 231.488281 C 142.882812 221.859375 135.203125 214.648438 123.792969 211.703125 C 108.34375 207.6875 84.84375 211.566406 67.734375 228.792969 Z M 126.902344 235.382812 C 121.859375 230.902344 115.570312 228.0625 108.773438 226.984375 C 118.40625 225.351562 127.9375 226.964844 136.351562 231.816406 C 135.382812 232.925781 134.65625 234.34375 134.304688 236.035156 C 133.378906 240.464844 135.152344 246.3125 141.28125 248.714844 C 142.515625 249.183594 143.800781 249.410156 145.101562 249.410156 C 145.679688 249.410156 146.257812 249.351562 146.835938 249.257812 C 147.257812 252.941406 147.058594 256.453125 146.214844 259.523438 C 145.085938 263.445312 143.066406 266.421875 140.222656 268.34375 C 138.40625 269.574219 136.28125 270.335938 133.863281 270.613281 C 130.027344 271.121094 126.515625 269.457031 124.816406 266.355469 C 124.152344 265.210938 123.503906 263.390625 124.222656 261.195312 C 125.109375 258.453125 127.132812 258.3125 127.730469 258.398438 C 128.628906 258.445312 129.761719 258.929688 130.007812 260.140625 C 130.273438 261.457031 131.421875 262.410156 132.769531 262.429688 C 134.058594 262.167969 135.289062 261.523438 135.589844 260.21875 C 137.636719 251.324219 134.390625 242.042969 126.902344 235.382812 Z M 69.96875 234.789062 C 84.976562 218.265625 107.492188 213.390625 122.367188 217.230469 C 128.191406 218.734375 132.71875 221.425781 135.671875 225.0625 C 120.792969 218.164062 103.019531 219.535156 87.359375 229.289062 C 87.347656 229.292969 87.332031 229.292969 87.320312 229.304688 C 87.308594 229.308594 87.304688 229.320312 87.292969 229.328125 C 87.269531 229.335938 87.253906 229.347656 87.234375 229.359375 C 87.226562 229.359375 87.226562 229.363281 87.222656 229.363281 C 87.1875 229.386719 87.152344 229.398438 87.117188 229.417969 C 81.9375 232.671875 77.164062 236.707031 72.855469 241.433594 C 71.804688 239.207031 70.839844 236.988281 69.96875 234.789062 Z M 78.824219 252.628906 C 77.773438 250.882812 76.710938 248.996094 75.609375 246.929688 C 79.890625 241.921875 84.710938 237.703125 89.972656 234.375 C 104.34375 229.328125 116.5 233.769531 123.105469 239.648438 C 127.429688 243.492188 129.945312 248.21875 130.414062 253.160156 C 129.675781 252.902344 128.878906 252.746094 128.058594 252.695312 C 123.929688 252.449219 120.203125 255.097656 118.792969 259.425781 C 118.0625 261.664062 118.03125 264 118.625 266.195312 C 117.25 266.527344 116 266.453125 114.953125 265.980469 C 114.910156 265.953125 114.867188 265.929688 114.824219 265.90625 C 112.988281 264.964844 111.816406 262.777344 111.980469 260.527344 C 112.078125 259.226562 112.714844 256.871094 115.972656 255.84375 C 116.785156 255.585938 117.441406 254.984375 117.765625 254.1875 C 118.078125 253.398438 118.03125 252.503906 117.621094 251.757812 C 114.882812 246.738281 109.257812 243.65625 102.175781 243.296875 C 94.933594 242.9375 85.371094 245.734375 78.824219 252.628906 Z M 82.003906 257.644531 C 87.242188 251.269531 95.566406 248.671875 101.894531 249.003906 C 105.570312 249.183594 108.640625 250.300781 110.722656 252.144531 C 108.125 254.007812 106.523438 256.808594 106.285156 260.117188 C 106.246094 260.710938 106.25 261.300781 106.292969 261.882812 C 98.34375 258.882812 90.84375 258.257812 83.585938 259.964844 C 83.046875 259.210938 82.523438 258.4375 82.003906 257.644531 Z M 88.300781 266.273438 C 100.441406 268.703125 113.035156 283.292969 123.476562 295.359375 C 124.375 296.402344 125.261719 297.417969 126.140625 298.425781 C 111.582031 290.351562 98.734375 279.445312 88.300781 266.273438 Z M 140.445312 305.277344 C 136.726562 301.9375 132.386719 296.933594 127.789062 291.617188 C 120.21875 282.867188 111.554688 272.863281 102.320312 266.539062 C 105.53125 267.578125 108.847656 269.070312 112.285156 271.023438 C 120.3125 275.558594 129.144531 282.589844 140.070312 293.132812 C 148.824219 301.597656 156.730469 307.855469 164.289062 312.207031 C 156.160156 310.691406 148.191406 308.382812 140.445312 305.277344 Z M 193.660156 314.214844 L 193.660156 314.203125 C 192.8125 314.253906 191.894531 314.300781 190.910156 314.3125 L 190.894531 314.3125 C 176.167969 314.113281 162.15625 306.546875 144.035156 289.03125 C 138.808594 283.984375 134.027344 279.714844 129.558594 276.101562 C 130.519531 276.289062 131.5 276.414062 132.507812 276.414062 C 133.179688 276.414062 133.863281 276.371094 134.554688 276.28125 C 137.085938 275.988281 139.429688 275.273438 141.558594 274.167969 C 142.933594 275.328125 144.726562 276.902344 146.867188 278.792969 C 154.78125 285.75 168.007812 297.390625 181.28125 306.183594 L 181.859375 306.570312 C 186.046875 309.363281 190.125 312.078125 194.210938 314.203125 C 194.046875 314.203125 193.863281 314.210938 193.660156 314.214844 Z M 208.511719 312.644531 C 201.117188 312.554688 193.65625 307.574219 185.023438 301.820312 L 184.445312 301.425781 C 171.484375 292.851562 158.941406 281.8125 150.640625 274.507812 C 148.976562 273.035156 147.511719 271.75 146.273438 270.691406 C 147.886719 269.050781 149.230469 267.09375 150.28125 264.867188 C 160.292969 272.5625 176.71875 284.902344 191.449219 294.664062 C 203.605469 302.71875 214.296875 307.484375 223.957031 309.0625 C 218.902344 310.578125 213.746094 311.785156 208.511719 312.644531 Z M 245.679688 300.261719 C 245.671875 300.273438 245.660156 300.277344 245.644531 300.285156 C 245.621094 300.292969 245.601562 300.3125 245.578125 300.320312 C 245.472656 300.382812 245.367188 300.4375 245.261719 300.496094 C 244.75 300.78125 244.234375 301.039062 243.722656 301.296875 C 243.558594 301.367188 243.371094 301.453125 243.339844 301.472656 C 230.3125 306.976562 214.824219 303.3125 194.609375 289.902344 C 179.199219 279.699219 161.886719 266.617188 152.167969 259.117188 C 152.917969 255.328125 152.949219 251.160156 152.277344 246.886719 C 152.972656 246.347656 153.609375 245.707031 154.214844 245.035156 C 154.917969 245.773438 155.628906 246.503906 156.347656 247.199219 C 156.445312 247.308594 156.546875 247.414062 156.652344 247.5 C 157.425781 248.273438 158.199219 249.046875 159.027344 249.816406 C 159.039062 249.824219 159.050781 249.835938 159.0625 249.847656 C 162.007812 252.59375 164.828125 254.992188 167.6875 257.199219 C 167.765625 257.265625 167.824219 257.320312 167.917969 257.390625 C 195.679688 282.511719 216.261719 295.316406 232.679688 297.675781 C 234.679688 297.964844 236.515625 298.09375 238.199219 298.089844 C 246.714844 298.089844 251.34375 294.734375 253.773438 291.777344 C 252.390625 294.917969 249.851562 298.035156 245.679688 300.261719 Z M 259.863281 291.75 C 260.734375 288.949219 260.984375 286.207031 260.773438 283.851562 C 260.261719 278.113281 257.210938 273.792969 252.722656 272.289062 C 252.691406 272.28125 252.65625 272.261719 252.625 272.253906 C 252.625 272.253906 252.621094 272.253906 252.621094 272.253906 C 250.929688 271.636719 248.960938 271.457031 246.902344 271.757812 C 245.828125 271.914062 244.941406 272.65625 244.597656 273.679688 C 244.261719 274.707031 244.527344 275.839844 245.289062 276.605469 C 246.035156 277.355469 245.976562 278.597656 245.578125 279.496094 C 245.273438 280.183594 244.40625 281.683594 241.699219 281.667969 C 239.15625 281.53125 237.195312 278.953125 237.027344 275.464844 C 236.890625 273.558594 237.398438 271.5625 238.417969 269.878906 C 238.855469 269.351562 239.234375 268.84375 239.515625 268.359375 L 240.109375 267.722656 C 245.339844 262.601562 255.015625 261.691406 262.613281 265.597656 C 262.695312 265.640625 262.777344 265.664062 262.859375 265.695312 C 266.789062 267.75 271.777344 271.898438 274.195312 280.160156 C 269.683594 284.390625 264.902344 288.257812 259.863281 291.75 Z M 278.636719 275.667969 C 276.539062 270.363281 273.226562 265.972656 268.9375 262.824219 C 294.046875 242.332031 291.726562 214.851562 287.3125 201.386719 C 287.355469 201.410156 287.398438 201.425781 287.449219 201.441406 C 292.320312 203.675781 295.976562 209.695312 297.472656 217.960938 C 300.265625 233.425781 295.484375 256.644531 278.636719 275.667969 Z M 305.804688 233.382812 C 305.785156 233.453125 305.773438 233.53125 305.757812 233.605469 C 304.671875 236.40625 303.484375 239.152344 302.21875 241.84375 C 304.199219 232.726562 304.378906 224.085938 303.082031 216.949219 C 301.808594 209.875 299.179688 204.1875 295.476562 200.332031 C 296.894531 199.546875 298.15625 198.414062 299.082031 196.984375 C 300.382812 194.988281 300.804688 192.800781 300.375 190.730469 C 300.933594 190.941406 301.410156 191.242188 301.714844 191.449219 C 306.378906 194.691406 313.246094 207.625 305.804688 233.382812 Z M 304.96875 186.761719 C 301.390625 184.289062 297.347656 184.097656 294.40625 186.28125 C 293.753906 186.765625 293.335938 187.5 293.265625 188.3125 C 293.191406 189.117188 293.464844 189.925781 294.015625 190.519531 C 294.980469 191.546875 295.078125 192.679688 294.296875 193.867188 C 293.421875 195.230469 291.515625 196.3125 289.667969 195.691406 C 286.488281 194.597656 284.523438 192.015625 284.277344 188.59375 C 283.976562 184.402344 286.441406 180.324219 290.617188 178.175781 C 291.777344 177.554688 293.066406 177.082031 294.570312 176.738281 C 299.851562 175.519531 309.558594 176.96875 314.285156 183.6875 C 314.335938 185.015625 314.371094 186.320312 314.371094 187.660156 C 314.371094 192.363281 314.089844 197.015625 313.582031 201.617188 C 311.972656 194.503906 308.816406 189.429688 304.96875 186.761719 Z M 151.894531 201.273438 C 152.417969 201.675781 153.027344 201.871094 153.640625 201.871094 C 154.492188 201.871094 155.335938 201.492188 155.898438 200.761719 C 156.859375 199.519531 156.632812 197.722656 155.386719 196.757812 C 154.867188 196.363281 154.5625 196.0625 154.503906 196.011719 C 153.402344 194.921875 151.609375 194.921875 150.5 196.023438 C 149.382812 197.136719 149.378906 198.941406 150.476562 200.058594 C 150.476562 200.058594 150.980469 200.566406 151.894531 201.273438 " fill-opacity="1" fill-rule="nonzero"/></g><g transform="matrix(1, 0, 0, 1, 67, 16)"><g clip-path="url(#c4e0735411)"><g fill="#ffffff" fill-opacity="1"><g transform="translate(17.777628, 70.123936)"><g><path d="M 0.40625 -2.984375 L -9.703125 -14.125 C -10.097656 -14.5625 -10.28125 -15.0625 -10.25 -15.625 C -10.21875 -16.195312 -9.988281 -16.679688 -9.5625 -17.078125 L -1.640625 -24.25 C -1.242188 -24.613281 -0.785156 -24.78125 -0.265625 -24.75 C 0.242188 -24.726562 0.679688 -24.519531 1.046875 -24.125 C 1.390625 -23.738281 1.550781 -23.285156 1.53125 -22.765625 C 1.519531 -22.242188 1.316406 -21.800781 0.921875 -21.4375 L -5.453125 -15.671875 L -2.734375 -12.65625 L 2.71875 -17.59375 C 3.113281 -17.945312 3.570312 -18.113281 4.09375 -18.09375 C 4.625 -18.082031 5.066406 -17.878906 5.421875 -17.484375 C 5.785156 -17.085938 5.953125 -16.625 5.921875 -16.09375 C 5.890625 -15.5625 5.675781 -15.117188 5.28125 -14.765625 L -0.171875 -9.828125 L 3.5 -5.796875 C 3.882812 -5.359375 4.066406 -4.851562 4.046875 -4.28125 C 4.023438 -3.707031 3.796875 -3.226562 3.359375 -2.84375 C 2.929688 -2.445312 2.425781 -2.257812 1.84375 -2.28125 C 1.269531 -2.3125 0.789062 -2.546875 0.40625 -2.984375 Z M 0.40625 -2.984375 "/></g></g></g><g fill="#ffffff" fill-opacity="1"><g transform="translate(34.534656, 55.638986)"><g><path d="M -7.84375 -15.453125 C -8.164062 -15.921875 -8.28125 -16.441406 -8.1875 -17.015625 C -8.09375 -17.585938 -7.804688 -18.046875 -7.328125 -18.390625 C -6.859375 -18.722656 -6.332031 -18.835938 -5.75 -18.734375 C -5.175781 -18.628906 -4.726562 -18.34375 -4.40625 -17.875 L 4.359375 -5.421875 C 4.691406 -4.953125 4.804688 -4.429688 4.703125 -3.859375 C 4.597656 -3.296875 4.3125 -2.847656 3.84375 -2.515625 C 3.363281 -2.171875 2.835938 -2.046875 2.265625 -2.140625 C 1.703125 -2.242188 1.253906 -2.53125 0.921875 -3 Z M -7.84375 -15.453125 "/></g></g></g><g fill="#ffffff" fill-opacity="1"><g transform="translate(45.554459, 47.899988)"><g><path d="M 0.109375 -6.328125 C 0.347656 -6.453125 0.566406 -6.523438 0.765625 -6.546875 C 0.972656 -6.578125 1.164062 -6.582031 1.34375 -6.5625 C 2.226562 -6.4375 3.09375 -6.425781 3.9375 -6.53125 C 4.789062 -6.632812 5.628906 -6.90625 6.453125 -7.34375 C 7.222656 -7.757812 7.75 -8.222656 8.03125 -8.734375 C 8.3125 -9.242188 8.316406 -9.742188 8.046875 -10.234375 L 8.015625 -10.296875 C 7.890625 -10.535156 7.726562 -10.71875 7.53125 -10.84375 C 7.34375 -10.976562 7.082031 -11.0625 6.75 -11.09375 C 6.414062 -11.132812 5.984375 -11.113281 5.453125 -11.03125 C 4.929688 -10.957031 4.273438 -10.820312 3.484375 -10.625 C 2.515625 -10.375 1.617188 -10.1875 0.796875 -10.0625 C -0.015625 -9.945312 -0.765625 -9.953125 -1.453125 -10.078125 C -2.140625 -10.203125 -2.765625 -10.472656 -3.328125 -10.890625 C -3.890625 -11.316406 -4.394531 -11.945312 -4.84375 -12.78125 L -4.875 -12.828125 C -5.28125 -13.597656 -5.503906 -14.363281 -5.546875 -15.125 C -5.597656 -15.894531 -5.484375 -16.644531 -5.203125 -17.375 C -4.921875 -18.113281 -4.484375 -18.796875 -3.890625 -19.421875 C -3.296875 -20.046875 -2.566406 -20.585938 -1.703125 -21.046875 C 0.335938 -22.140625 2.390625 -22.59375 4.453125 -22.40625 C 4.710938 -22.382812 4.992188 -22.296875 5.296875 -22.140625 C 5.597656 -21.992188 5.847656 -21.738281 6.046875 -21.375 C 6.304688 -20.894531 6.351562 -20.398438 6.1875 -19.890625 C 6.03125 -19.378906 5.707031 -18.992188 5.21875 -18.734375 C 4.894531 -18.554688 4.53125 -18.476562 4.125 -18.5 C 2.519531 -18.613281 1.148438 -18.367188 0.015625 -17.765625 C -0.710938 -17.367188 -1.179688 -16.9375 -1.390625 -16.46875 C -1.609375 -16 -1.601562 -15.550781 -1.375 -15.125 L -1.34375 -15.09375 C -1.1875 -14.789062 -1.003906 -14.566406 -0.796875 -14.421875 C -0.597656 -14.285156 -0.320312 -14.210938 0.03125 -14.203125 C 0.394531 -14.203125 0.851562 -14.253906 1.40625 -14.359375 C 1.957031 -14.460938 2.640625 -14.613281 3.453125 -14.8125 C 4.429688 -15.039062 5.320312 -15.191406 6.125 -15.265625 C 6.9375 -15.335938 7.675781 -15.296875 8.34375 -15.140625 C 9.019531 -14.992188 9.613281 -14.71875 10.125 -14.3125 C 10.644531 -13.914062 11.101562 -13.351562 11.5 -12.625 L 11.53125 -12.5625 C 11.976562 -11.726562 12.21875 -10.90625 12.25 -10.09375 C 12.289062 -9.28125 12.15625 -8.503906 11.84375 -7.765625 C 11.539062 -7.035156 11.078125 -6.351562 10.453125 -5.71875 C 9.828125 -5.09375 9.050781 -4.535156 8.125 -4.046875 C 7.03125 -3.453125 5.851562 -3.035156 4.59375 -2.796875 C 3.34375 -2.554688 2.054688 -2.519531 0.734375 -2.6875 C 0.441406 -2.71875 0.164062 -2.820312 -0.09375 -3 C -0.351562 -3.1875 -0.554688 -3.421875 -0.703125 -3.703125 C -0.960938 -4.191406 -1.007812 -4.6875 -0.84375 -5.1875 C -0.6875 -5.6875 -0.367188 -6.066406 0.109375 -6.328125 Z M 0.109375 -6.328125 "/></g></g></g><g fill="#ffffff" fill-opacity="1"><g transform="translate(64.519091, 37.975466)"><g><path d="M 1.546875 -2.578125 L -3.40625 -16.96875 C -3.59375 -17.507812 -3.554688 -18.039062 -3.296875 -18.5625 C -3.046875 -19.082031 -2.644531 -19.4375 -2.09375 -19.625 C -1.539062 -19.820312 -1.007812 -19.789062 -0.5 -19.53125 C 0.0078125 -19.269531 0.359375 -18.867188 0.546875 -18.328125 L 2.375 -13.015625 L 9.71875 -15.53125 L 7.890625 -20.84375 C 7.703125 -21.382812 7.734375 -21.914062 7.984375 -22.4375 C 8.234375 -22.957031 8.632812 -23.316406 9.1875 -23.515625 C 9.738281 -23.703125 10.273438 -23.664062 10.796875 -23.40625 C 11.316406 -23.15625 11.671875 -22.757812 11.859375 -22.21875 L 16.8125 -7.828125 C 17 -7.273438 16.960938 -6.738281 16.703125 -6.21875 C 16.441406 -5.707031 16.035156 -5.359375 15.484375 -5.171875 C 14.929688 -4.972656 14.398438 -5 13.890625 -5.25 C 13.378906 -5.5 13.03125 -5.898438 12.84375 -6.453125 L 10.984375 -11.859375 L 3.640625 -9.34375 L 5.5 -3.9375 C 5.6875 -3.382812 5.65625 -2.851562 5.40625 -2.34375 C 5.15625 -1.832031 4.753906 -1.476562 4.203125 -1.28125 C 3.648438 -1.09375 3.113281 -1.125 2.59375 -1.375 C 2.082031 -1.625 1.734375 -2.023438 1.546875 -2.578125 Z M 1.546875 -2.578125 "/></g></g></g><g fill="#ffffff" fill-opacity="1"><g transform="translate(87.949374, 30.361692)"><g><path d="M 1.921875 -2.453125 L -0.578125 -17.140625 C -0.679688 -17.710938 -0.566406 -18.234375 -0.234375 -18.703125 C 0.0976562 -19.171875 0.550781 -19.453125 1.125 -19.546875 L 11.546875 -21.328125 C 12.078125 -21.410156 12.550781 -21.304688 12.96875 -21.015625 C 13.382812 -20.722656 13.632812 -20.3125 13.71875 -19.78125 C 13.8125 -19.257812 13.707031 -18.789062 13.40625 -18.375 C 13.113281 -17.96875 12.703125 -17.722656 12.171875 -17.640625 L 3.796875 -16.203125 L 4.453125 -12.40625 L 11.625 -13.625 C 12.144531 -13.71875 12.613281 -13.613281 13.03125 -13.3125 C 13.445312 -13.019531 13.703125 -12.609375 13.796875 -12.078125 C 13.878906 -11.566406 13.769531 -11.101562 13.46875 -10.6875 C 13.175781 -10.28125 12.769531 -10.03125 12.25 -9.9375 L 5.078125 -8.71875 L 5.75 -4.765625 L 14.265625 -6.21875 C 14.785156 -6.3125 15.253906 -6.207031 15.671875 -5.90625 C 16.097656 -5.601562 16.351562 -5.191406 16.4375 -4.671875 C 16.53125 -4.148438 16.425781 -3.6875 16.125 -3.28125 C 15.820312 -2.875 15.410156 -2.625 14.890625 -2.53125 L 4.328125 -0.734375 C 3.753906 -0.640625 3.234375 -0.757812 2.765625 -1.09375 C 2.296875 -1.4375 2.015625 -1.890625 1.921875 -2.453125 Z M 1.921875 -2.453125 "/></g></g></g><g fill="#ffffff" fill-opacity="1"><g transform="translate(109.89909, 26.887643)"><g><path d="M 2.140625 -17 C 2.128906 -17.582031 2.328125 -18.078125 2.734375 -18.484375 C 3.140625 -18.898438 3.632812 -19.113281 4.21875 -19.125 L 10.84375 -19.1875 C 11.863281 -19.195312 12.804688 -19.078125 13.671875 -18.828125 C 14.546875 -18.585938 15.304688 -18.207031 15.953125 -17.6875 C 16.609375 -17.175781 17.125 -16.523438 17.5 -15.734375 C 17.882812 -14.953125 18.082031 -14.023438 18.09375 -12.953125 L 18.09375 -12.90625 C 18.113281 -11.375 17.78125 -10.140625 17.09375 -9.203125 C 16.40625 -8.265625 15.484375 -7.550781 14.328125 -7.0625 L 17.28125 -3.53125 C 17.476562 -3.289062 17.644531 -3.046875 17.78125 -2.796875 C 17.914062 -2.554688 17.984375 -2.269531 17.984375 -1.9375 C 17.984375 -1.363281 17.78125 -0.894531 17.375 -0.53125 C 16.96875 -0.175781 16.507812 0 16 0 C 15.53125 0.0078125 15.128906 -0.0859375 14.796875 -0.296875 C 14.472656 -0.503906 14.179688 -0.753906 13.921875 -1.046875 L 9.78125 -6.203125 L 6.421875 -6.171875 L 6.46875 -2 C 6.46875 -1.414062 6.265625 -0.914062 5.859375 -0.5 C 5.460938 -0.09375 4.972656 0.109375 4.390625 0.109375 C 3.804688 0.117188 3.304688 -0.0703125 2.890625 -0.46875 C 2.484375 -0.875 2.28125 -1.367188 2.28125 -1.953125 Z M 6.34375 -15.359375 L 6.390625 -9.875 L 10.65625 -9.90625 C 11.6875 -9.914062 12.472656 -10.164062 13.015625 -10.65625 C 13.566406 -11.15625 13.835938 -11.816406 13.828125 -12.640625 L 13.828125 -12.6875 C 13.828125 -13.613281 13.535156 -14.296875 12.953125 -14.734375 C 12.367188 -15.179688 11.554688 -15.398438 10.515625 -15.390625 Z M 6.34375 -15.359375 "/></g></g></g><g fill="#ffffff" fill-opacity="1"><g transform="translate(133.839609, 27.294338)"><g/></g></g><g fill="#ffffff" fill-opacity="1"><g transform="translate(146.183129, 28.587239)"><g><path d="M 15.875 -16 C 17.28125 -15.632812 18.441406 -15.179688 19.359375 -14.640625 C 20.273438 -14.109375 21.070312 -13.425781 21.75 -12.59375 C 21.894531 -12.40625 22.023438 -12.148438 22.140625 -11.828125 C 22.265625 -11.503906 22.273438 -11.144531 22.171875 -10.75 C 22.023438 -10.175781 21.707031 -9.742188 21.21875 -9.453125 C 20.726562 -9.171875 20.203125 -9.101562 19.640625 -9.25 C 19.347656 -9.320312 19.113281 -9.425781 18.9375 -9.5625 C 18.769531 -9.695312 18.628906 -9.835938 18.515625 -9.984375 C 18.046875 -10.535156 17.53125 -11 16.96875 -11.375 C 16.414062 -11.75 15.691406 -12.050781 14.796875 -12.28125 C 14.054688 -12.46875 13.320312 -12.488281 12.59375 -12.34375 C 11.875 -12.195312 11.207031 -11.925781 10.59375 -11.53125 C 9.988281 -11.132812 9.457031 -10.625 9 -10 C 8.550781 -9.375 8.222656 -8.660156 8.015625 -7.859375 L 8 -7.8125 C 7.789062 -6.96875 7.734375 -6.15625 7.828125 -5.375 C 7.921875 -4.59375 8.148438 -3.867188 8.515625 -3.203125 C 8.878906 -2.546875 9.367188 -1.984375 9.984375 -1.515625 C 10.597656 -1.054688 11.304688 -0.722656 12.109375 -0.515625 C 13.640625 -0.128906 15.007812 -0.179688 16.21875 -0.671875 L 16.890625 -3.3125 L 14.15625 -4 C 13.65625 -4.125 13.273438 -4.394531 13.015625 -4.8125 C 12.765625 -5.226562 12.703125 -5.6875 12.828125 -6.1875 C 12.953125 -6.675781 13.226562 -7.046875 13.65625 -7.296875 C 14.082031 -7.554688 14.546875 -7.625 15.046875 -7.5 L 19.6875 -6.328125 C 20.257812 -6.179688 20.691406 -5.863281 20.984375 -5.375 C 21.273438 -4.882812 21.347656 -4.351562 21.203125 -3.78125 L 20.0625 0.703125 C 19.769531 1.847656 19.078125 2.59375 17.984375 2.9375 C 17.117188 3.207031 16.09375 3.394531 14.90625 3.5 C 13.71875 3.613281 12.429688 3.492188 11.046875 3.140625 C 9.609375 2.773438 8.351562 2.203125 7.28125 1.421875 C 6.207031 0.648438 5.347656 -0.265625 4.703125 -1.328125 C 4.066406 -2.398438 3.65625 -3.578125 3.46875 -4.859375 C 3.289062 -6.140625 3.375 -7.460938 3.71875 -8.828125 L 3.734375 -8.890625 C 4.078125 -10.210938 4.632812 -11.390625 5.40625 -12.421875 C 6.1875 -13.453125 7.117188 -14.296875 8.203125 -14.953125 C 9.285156 -15.609375 10.488281 -16.035156 11.8125 -16.234375 C 13.132812 -16.429688 14.488281 -16.351562 15.875 -16 Z M 15.875 -16 "/></g></g></g><g fill="#ffffff" fill-opacity="1"><g transform="translate(170.519815, 35.132218)"><g><path d="M 2.234375 -1.96875 L 14.4375 -12.953125 C 14.875 -13.328125 15.335938 -13.5625 15.828125 -13.65625 C 16.328125 -13.757812 16.835938 -13.691406 17.359375 -13.453125 L 17.59375 -13.359375 C 18.125 -13.117188 18.507812 -12.78125 18.75 -12.34375 C 19 -11.914062 19.117188 -11.414062 19.109375 -10.84375 L 19.046875 5.578125 C 19.003906 6.015625 18.953125 6.300781 18.890625 6.4375 C 18.660156 6.957031 18.289062 7.316406 17.78125 7.515625 C 17.28125 7.710938 16.773438 7.695312 16.265625 7.46875 C 15.816406 7.269531 15.492188 6.984375 15.296875 6.609375 C 15.097656 6.242188 15.003906 5.816406 15.015625 5.328125 L 15.0625 2.0625 L 7.390625 -1.375 L 4.90625 0.9375 C 4.5625 1.25 4.191406 1.4375 3.796875 1.5 C 3.398438 1.570312 3.003906 1.519531 2.609375 1.34375 C 2.097656 1.113281 1.75 0.75 1.5625 0.25 C 1.382812 -0.238281 1.40625 -0.734375 1.625 -1.234375 C 1.6875 -1.367188 1.769531 -1.5 1.875 -1.625 C 1.988281 -1.75 2.109375 -1.863281 2.234375 -1.96875 Z M 10.34375 -4.109375 L 15.15625 -1.953125 L 15.328125 -8.78125 Z M 10.34375 -4.109375 "/></g></g></g><g fill="#ffffff" fill-opacity="1"><g transform="translate(192.968591, 45.696253)"><g><path d="M 10.078125 -13.90625 C 10.367188 -14.332031 10.773438 -14.597656 11.296875 -14.703125 C 11.828125 -14.816406 12.3125 -14.726562 12.75 -14.4375 L 23 -7.6875 C 23.4375 -7.394531 23.707031 -6.984375 23.8125 -6.453125 C 23.925781 -5.921875 23.835938 -5.441406 23.546875 -5.015625 C 23.253906 -4.566406 22.84375 -4.289062 22.3125 -4.1875 C 21.789062 -4.082031 21.3125 -4.175781 20.875 -4.46875 L 17.5 -6.6875 L 10.1875 4.390625 C 9.863281 4.878906 9.414062 5.179688 8.84375 5.296875 C 8.28125 5.410156 7.757812 5.304688 7.28125 4.984375 C 6.800781 4.671875 6.5 4.226562 6.375 3.65625 C 6.257812 3.09375 6.363281 2.566406 6.6875 2.078125 L 14 -9 L 10.625 -11.21875 C 10.1875 -11.507812 9.910156 -11.914062 9.796875 -12.4375 C 9.691406 -12.96875 9.785156 -13.457031 10.078125 -13.90625 Z M 10.078125 -13.90625 "/></g></g></g><g fill="#ffffff" fill-opacity="1"><g transform="translate(210.910977, 57.866707)"><g><path d="M 3.109375 0 L 13.09375 -11.046875 C 13.488281 -11.484375 13.972656 -11.710938 14.546875 -11.734375 C 15.117188 -11.765625 15.617188 -11.582031 16.046875 -11.1875 L 23.890625 -4.09375 C 24.285156 -3.738281 24.492188 -3.304688 24.515625 -2.796875 C 24.546875 -2.296875 24.382812 -1.847656 24.03125 -1.453125 C 23.664062 -1.066406 23.234375 -0.859375 22.734375 -0.828125 C 22.234375 -0.804688 21.785156 -0.972656 21.390625 -1.328125 L 15.09375 -7.03125 L 12.5 -4.171875 L 17.890625 0.703125 C 18.285156 1.054688 18.492188 1.488281 18.515625 2 C 18.546875 2.519531 18.382812 2.976562 18.03125 3.375 C 17.675781 3.757812 17.242188 3.957031 16.734375 3.96875 C 16.234375 3.988281 15.785156 3.820312 15.390625 3.46875 L 10 -1.40625 L 7.296875 1.578125 L 13.703125 7.375 C 14.085938 7.71875 14.289062 8.144531 14.3125 8.65625 C 14.34375 9.175781 14.1875 9.628906 13.84375 10.015625 C 13.488281 10.410156 13.054688 10.613281 12.546875 10.625 C 12.035156 10.644531 11.585938 10.484375 11.203125 10.140625 L 3.25 2.953125 C 2.820312 2.554688 2.59375 2.066406 2.5625 1.484375 C 2.539062 0.910156 2.722656 0.414062 3.109375 0 Z M 3.109375 0 "/></g></g></g></g></g><g transform="matrix(1, 0, 0, 1, 72, 288)"><g clip-path="url(#6271bb2c03)"><g fill="#ffffff" fill-opacity="1"><g transform="translate(4.5014, 16.53146)"><g><path d="M 11.078125 -9.875 C 11.410156 -10.25 11.828125 -10.457031 12.328125 -10.5 C 12.828125 -10.539062 13.265625 -10.398438 13.640625 -10.078125 L 17.390625 -6.859375 C 18.148438 -6.210938 18.734375 -5.53125 19.140625 -4.8125 C 19.546875 -4.101562 19.796875 -3.378906 19.890625 -2.640625 C 19.984375 -1.898438 19.910156 -1.164062 19.671875 -0.4375 C 19.429688 0.28125 19.035156 0.960938 18.484375 1.609375 L 18.453125 1.640625 C 17.828125 2.367188 17.144531 2.894531 16.40625 3.21875 C 15.675781 3.539062 14.921875 3.691406 14.140625 3.671875 C 13.367188 3.648438 12.59375 3.46875 11.8125 3.125 C 11.039062 2.78125 10.304688 2.304688 9.609375 1.703125 L 7.5 -0.109375 L 5.359375 2.390625 C 5.023438 2.765625 4.609375 2.972656 4.109375 3.015625 C 3.617188 3.054688 3.175781 2.910156 2.78125 2.578125 C 2.40625 2.253906 2.195312 1.84375 2.15625 1.34375 C 2.113281 0.84375 2.257812 0.40625 2.59375 0.03125 Z M 9.609375 -2.5625 L 11.796875 -0.6875 C 12.492188 -0.09375 13.1875 0.1875 13.875 0.15625 C 14.570312 0.125 15.148438 -0.160156 15.609375 -0.703125 L 15.640625 -0.734375 C 16.171875 -1.359375 16.375 -2.003906 16.25 -2.671875 C 16.125 -3.347656 15.71875 -3.976562 15.03125 -4.5625 L 12.890625 -6.40625 Z M 9.609375 -2.5625 "/></g></g></g><g fill="#ffffff" fill-opacity="1"><g transform="translate(19.951958, 29.492636)"><g><path d="M 12.078125 -12.015625 C 12.492188 -11.742188 12.753906 -11.363281 12.859375 -10.875 C 12.960938 -10.394531 12.878906 -9.941406 12.609375 -9.515625 L 8.40625 -3.09375 C 7.65625 -1.9375 7.359375 -0.90625 7.515625 0 C 7.671875 0.90625 8.222656 1.671875 9.171875 2.296875 C 10.109375 2.910156 11.019531 3.113281 11.90625 2.90625 C 12.789062 2.695312 13.597656 2.035156 14.328125 0.921875 L 18.59375 -5.609375 C 18.863281 -6.035156 19.242188 -6.296875 19.734375 -6.390625 C 20.222656 -6.492188 20.675781 -6.40625 21.09375 -6.125 C 21.519531 -5.851562 21.785156 -5.472656 21.890625 -4.984375 C 21.992188 -4.492188 21.910156 -4.035156 21.640625 -3.609375 L 17.453125 2.796875 C 16.773438 3.835938 16.039062 4.65625 15.25 5.25 C 14.457031 5.84375 13.625 6.226562 12.75 6.40625 C 11.875 6.59375 10.976562 6.566406 10.0625 6.328125 C 9.15625 6.097656 8.234375 5.679688 7.296875 5.078125 C 5.429688 3.859375 4.300781 2.382812 3.90625 0.65625 C 3.507812 -1.0625 3.976562 -2.945312 5.3125 -5 L 9.5625 -11.5 C 9.832031 -11.925781 10.210938 -12.1875 10.703125 -12.28125 C 11.191406 -12.382812 11.648438 -12.296875 12.078125 -12.015625 Z M 12.078125 -12.015625 "/></g></g></g><g fill="#ffffff" fill-opacity="1"><g transform="translate(38.757937, 41.316183)"><g><path d="M 8.265625 -12.515625 C 8.484375 -12.960938 8.828125 -13.265625 9.296875 -13.421875 C 9.765625 -13.585938 10.226562 -13.5625 10.6875 -13.34375 C 11.144531 -13.125 11.457031 -12.773438 11.625 -12.296875 C 11.789062 -11.828125 11.765625 -11.367188 11.546875 -10.921875 L 6.5 -0.53125 L 12.5625 2.40625 C 12.96875 2.601562 13.242188 2.914062 13.390625 3.34375 C 13.546875 3.78125 13.523438 4.207031 13.328125 4.625 C 13.128906 5.03125 12.8125 5.304688 12.375 5.453125 C 11.945312 5.609375 11.53125 5.585938 11.125 5.390625 L 3.421875 1.65625 C 2.960938 1.4375 2.648438 1.085938 2.484375 0.609375 C 2.328125 0.140625 2.359375 -0.316406 2.578125 -0.765625 Z M 8.265625 -12.515625 "/></g></g></g><g fill="#ffffff" fill-opacity="1"><g transform="translate(55.921227, 49.449373)"><g><path d="M 1.75 -1.875 L 11.359375 -12.390625 C 11.703125 -12.765625 12.082031 -13.007812 12.5 -13.125 C 12.914062 -13.25 13.359375 -13.234375 13.828125 -13.078125 L 14.046875 -13 C 14.515625 -12.84375 14.875 -12.59375 15.125 -12.25 C 15.382812 -11.90625 15.535156 -11.484375 15.578125 -10.984375 L 16.890625 3.203125 C 16.898438 3.566406 16.882812 3.8125 16.84375 3.9375 C 16.6875 4.40625 16.394531 4.75 15.96875 4.96875 C 15.550781 5.1875 15.109375 5.21875 14.640625 5.0625 C 14.242188 4.925781 13.945312 4.703125 13.75 4.390625 C 13.550781 4.085938 13.429688 3.734375 13.390625 3.328125 L 13.15625 0.5 L 6.25 -1.8125 L 4.296875 0.390625 C 4.035156 0.691406 3.734375 0.890625 3.390625 0.984375 C 3.054688 1.078125 2.710938 1.066406 2.359375 0.953125 C 1.898438 0.796875 1.566406 0.507812 1.359375 0.09375 C 1.160156 -0.320312 1.140625 -0.757812 1.296875 -1.21875 C 1.335938 -1.332031 1.398438 -1.445312 1.484375 -1.5625 C 1.566406 -1.675781 1.65625 -1.78125 1.75 -1.875 Z M 8.5625 -4.4375 L 12.90625 -2.96875 L 12.46875 -8.875 Z M 8.5625 -4.4375 "/></g></g></g><g fill="#ffffff" fill-opacity="1"><g transform="translate(77.203364, 56.054947)"><g><path d="M 2.984375 0.8125 L 3.015625 0.671875 C 2.597656 0.453125 2.269531 0.140625 2.03125 -0.265625 C 1.789062 -0.679688 1.726562 -1.132812 1.84375 -1.625 C 1.96875 -2.195312 2.242188 -2.613281 2.671875 -2.875 C 3.109375 -3.132812 3.613281 -3.203125 4.1875 -3.078125 C 4.582031 -2.992188 4.890625 -2.84375 5.109375 -2.625 C 5.328125 -2.414062 5.488281 -2.164062 5.59375 -1.875 C 5.707031 -1.59375 5.757812 -1.285156 5.75 -0.953125 C 5.738281 -0.617188 5.695312 -0.285156 5.625 0.046875 C 5.488281 0.628906 5.300781 1.203125 5.0625 1.765625 C 4.832031 2.335938 4.535156 2.820312 4.171875 3.21875 C 3.816406 3.613281 3.382812 3.910156 2.875 4.109375 C 2.375 4.304688 1.796875 4.332031 1.140625 4.1875 C 0.867188 4.125 0.671875 4.007812 0.546875 3.84375 C 0.421875 3.675781 0.382812 3.460938 0.4375 3.203125 C 0.507812 2.910156 0.65625 2.726562 0.875 2.65625 C 1.101562 2.59375 1.351562 2.515625 1.625 2.421875 C 1.894531 2.335938 2.15625 2.1875 2.40625 1.96875 C 2.664062 1.757812 2.859375 1.375 2.984375 0.8125 Z M 2.984375 0.8125 "/></g></g></g><g fill="#ffffff" fill-opacity="1"><g transform="translate(87.695243, 58.284489)"><g/></g></g><g fill="#ffffff" fill-opacity="1"><g transform="translate(98.842244, 60.065174)"><g><path d="M 10.75 -16.296875 C 11.988281 -16.234375 13.035156 -16.03125 13.890625 -15.6875 C 14.742188 -15.351562 15.507812 -14.894531 16.1875 -14.3125 C 16.363281 -14.164062 16.515625 -13.960938 16.640625 -13.703125 C 16.773438 -13.441406 16.832031 -13.15625 16.8125 -12.84375 C 16.789062 -12.34375 16.597656 -11.929688 16.234375 -11.609375 C 15.867188 -11.285156 15.429688 -11.140625 14.921875 -11.171875 C 14.671875 -11.179688 14.460938 -11.226562 14.296875 -11.3125 C 14.128906 -11.40625 13.984375 -11.488281 13.859375 -11.5625 C 13.367188 -11.976562 12.859375 -12.300781 12.328125 -12.53125 C 11.796875 -12.769531 11.203125 -12.90625 10.546875 -12.9375 C 9.847656 -12.96875 9.195312 -12.863281 8.59375 -12.625 C 8 -12.382812 7.472656 -12.039062 7.015625 -11.59375 C 6.566406 -11.15625 6.210938 -10.628906 5.953125 -10.015625 C 5.691406 -9.398438 5.539062 -8.738281 5.5 -8.03125 L 5.5 -7.984375 C 5.457031 -7.273438 5.535156 -6.601562 5.734375 -5.96875 C 5.929688 -5.332031 6.222656 -4.765625 6.609375 -4.265625 C 7.003906 -3.765625 7.488281 -3.363281 8.0625 -3.0625 C 8.632812 -2.757812 9.28125 -2.59375 10 -2.5625 C 10.769531 -2.519531 11.441406 -2.59375 12.015625 -2.78125 C 12.585938 -2.96875 13.132812 -3.265625 13.65625 -3.671875 C 13.988281 -3.910156 14.359375 -4.019531 14.765625 -4 C 15.222656 -3.976562 15.613281 -3.789062 15.9375 -3.4375 C 16.257812 -3.09375 16.40625 -2.691406 16.375 -2.234375 C 16.363281 -1.953125 16.289062 -1.710938 16.15625 -1.515625 C 16.03125 -1.328125 15.875 -1.144531 15.6875 -0.96875 C 14.9375 -0.332031 14.082031 0.132812 13.125 0.4375 C 12.175781 0.738281 11.035156 0.859375 9.703125 0.796875 C 8.492188 0.734375 7.382812 0.453125 6.375 -0.046875 C 5.363281 -0.546875 4.5 -1.191406 3.78125 -1.984375 C 3.0625 -2.785156 2.515625 -3.71875 2.140625 -4.78125 C 1.773438 -5.84375 1.625 -6.960938 1.6875 -8.140625 L 1.6875 -8.1875 C 1.75 -9.375 2.019531 -10.46875 2.5 -11.46875 C 2.976562 -12.476562 3.613281 -13.351562 4.40625 -14.09375 C 5.207031 -14.832031 6.144531 -15.398438 7.21875 -15.796875 C 8.300781 -16.191406 9.476562 -16.359375 10.75 -16.296875 Z M 10.75 -16.296875 "/></g></g></g><g fill="#ffffff" fill-opacity="1"><g transform="translate(120.662542, 60.908299)"><g><path d="M 0.796875 -14.828125 C 0.753906 -15.328125 0.894531 -15.769531 1.21875 -16.15625 C 1.539062 -16.539062 1.953125 -16.753906 2.453125 -16.796875 L 8.1875 -17.25 C 9.070312 -17.320312 9.894531 -17.28125 10.65625 -17.125 C 11.425781 -16.96875 12.109375 -16.6875 12.703125 -16.28125 C 13.296875 -15.882812 13.78125 -15.351562 14.15625 -14.6875 C 14.539062 -14.03125 14.769531 -13.242188 14.84375 -12.328125 L 14.84375 -12.28125 C 14.945312 -10.957031 14.734375 -9.863281 14.203125 -9 C 13.671875 -8.144531 12.914062 -7.472656 11.9375 -6.984375 L 14.71875 -4.125 C 14.914062 -3.914062 15.078125 -3.710938 15.203125 -3.515625 C 15.328125 -3.316406 15.398438 -3.078125 15.421875 -2.796875 C 15.460938 -2.296875 15.316406 -1.875 14.984375 -1.53125 C 14.660156 -1.195312 14.28125 -1.015625 13.84375 -0.984375 C 13.425781 -0.953125 13.066406 -1.015625 12.765625 -1.171875 C 12.472656 -1.328125 12.207031 -1.523438 11.96875 -1.765625 L 8.078125 -5.96875 L 5.1875 -5.734375 L 5.46875 -2.125 C 5.507812 -1.625 5.367188 -1.179688 5.046875 -0.796875 C 4.722656 -0.421875 4.304688 -0.210938 3.796875 -0.171875 C 3.296875 -0.128906 2.851562 -0.269531 2.46875 -0.59375 C 2.09375 -0.914062 1.882812 -1.328125 1.84375 -1.828125 Z M 4.53125 -13.65625 L 4.921875 -8.921875 L 8.59375 -9.21875 C 9.488281 -9.289062 10.15625 -9.5625 10.59375 -10.03125 C 11.03125 -10.5 11.222656 -11.085938 11.171875 -11.796875 L 11.171875 -11.84375 C 11.097656 -12.632812 10.796875 -13.203125 10.265625 -13.546875 C 9.734375 -13.890625 9.019531 -14.023438 8.125 -13.953125 Z M 4.53125 -13.65625 "/></g></g></g><g fill="#ffffff" fill-opacity="1"><g transform="translate(142.120541, 58.958639)"><g><path d="M 6.09375 -18.625 C 7.34375 -18.90625 8.535156 -18.945312 9.671875 -18.75 C 10.816406 -18.550781 11.851562 -18.164062 12.78125 -17.59375 C 13.707031 -17.019531 14.492188 -16.273438 15.140625 -15.359375 C 15.796875 -14.453125 16.253906 -13.421875 16.515625 -12.265625 L 16.53125 -12.21875 C 16.789062 -11.070312 16.816406 -9.945312 16.609375 -8.84375 C 16.410156 -7.738281 16.019531 -6.71875 15.4375 -5.78125 C 14.851562 -4.851562 14.082031 -4.050781 13.125 -3.375 C 12.175781 -2.695312 11.078125 -2.21875 9.828125 -1.9375 C 8.585938 -1.65625 7.394531 -1.613281 6.25 -1.8125 C 5.101562 -2.007812 4.0625 -2.394531 3.125 -2.96875 C 2.195312 -3.550781 1.410156 -4.296875 0.765625 -5.203125 C 0.117188 -6.117188 -0.332031 -7.148438 -0.59375 -8.296875 L -0.609375 -8.34375 C -0.867188 -9.5 -0.894531 -10.625 -0.6875 -11.71875 C -0.488281 -12.820312 -0.0976562 -13.835938 0.484375 -14.765625 C 1.066406 -15.703125 1.835938 -16.507812 2.796875 -17.1875 C 3.753906 -17.863281 4.851562 -18.34375 6.09375 -18.625 Z M 9.125 -5.21875 C 9.84375 -5.382812 10.46875 -5.664062 11 -6.0625 C 11.539062 -6.457031 11.96875 -6.929688 12.28125 -7.484375 C 12.601562 -8.046875 12.816406 -8.65625 12.921875 -9.3125 C 13.023438 -9.976562 13 -10.65625 12.84375 -11.34375 L 12.828125 -11.390625 C 12.671875 -12.078125 12.398438 -12.695312 12.015625 -13.25 C 11.640625 -13.8125 11.179688 -14.273438 10.640625 -14.640625 C 10.097656 -15.003906 9.5 -15.253906 8.84375 -15.390625 C 8.195312 -15.523438 7.515625 -15.515625 6.796875 -15.359375 C 6.097656 -15.191406 5.476562 -14.90625 4.9375 -14.5 C 4.394531 -14.101562 3.960938 -13.628906 3.640625 -13.078125 C 3.316406 -12.523438 3.101562 -11.914062 3 -11.25 C 2.90625 -10.59375 2.9375 -9.921875 3.09375 -9.234375 L 3.109375 -9.1875 C 3.265625 -8.5 3.53125 -7.875 3.90625 -7.3125 C 4.28125 -6.75 4.738281 -6.285156 5.28125 -5.921875 C 5.832031 -5.554688 6.4375 -5.304688 7.09375 -5.171875 C 7.75 -5.046875 8.425781 -5.0625 9.125 -5.21875 Z M 9.125 -5.21875 "/></g></g></g><g fill="#ffffff" fill-opacity="1"><g transform="translate(165.981419, 53.145793)"><g><path d="M 0.140625 -2.5625 L 0.84375 -16.78125 C 0.875 -17.28125 1.007812 -17.710938 1.25 -18.078125 C 1.488281 -18.441406 1.84375 -18.710938 2.3125 -18.890625 L 2.515625 -18.96875 C 2.972656 -19.144531 3.410156 -19.179688 3.828125 -19.078125 C 4.253906 -18.972656 4.640625 -18.738281 4.984375 -18.375 L 15.046875 -8.3125 C 15.285156 -8.019531 15.429688 -7.8125 15.484375 -7.6875 C 15.660156 -7.226562 15.65625 -6.785156 15.46875 -6.359375 C 15.28125 -5.929688 14.960938 -5.628906 14.515625 -5.453125 C 14.109375 -5.296875 13.734375 -5.273438 13.390625 -5.390625 C 13.046875 -5.503906 12.722656 -5.703125 12.421875 -5.984375 L 10.46875 -8 L 3.671875 -5.375 L 3.5625 -2.453125 C 3.550781 -2.046875 3.441406 -1.695312 3.234375 -1.40625 C 3.035156 -1.125 2.757812 -0.914062 2.40625 -0.78125 C 1.957031 -0.613281 1.523438 -0.617188 1.109375 -0.796875 C 0.691406 -0.984375 0.394531 -1.300781 0.21875 -1.75 C 0.175781 -1.863281 0.148438 -1.992188 0.140625 -2.140625 C 0.128906 -2.285156 0.128906 -2.425781 0.140625 -2.5625 Z M 3.765625 -8.859375 L 8.0625 -10.515625 L 3.9375 -14.78125 Z M 3.765625 -8.859375 "/></g></g></g><g fill="#ffffff" fill-opacity="1"><g transform="translate(186.809364, 44.71267)"><g><path d="M -6.515625 -13.375 C -6.734375 -13.769531 -6.773438 -14.191406 -6.640625 -14.640625 C -6.503906 -15.097656 -6.234375 -15.4375 -5.828125 -15.65625 L 3.5 -20.71875 C 3.90625 -20.9375 4.328125 -20.976562 4.765625 -20.84375 C 5.210938 -20.71875 5.546875 -20.457031 5.765625 -20.0625 C 5.984375 -19.65625 6.023438 -19.226562 5.890625 -18.78125 C 5.765625 -18.332031 5.5 -18 5.09375 -17.78125 L 2.015625 -16.109375 L 7.515625 -5.984375 C 7.753906 -5.546875 7.800781 -5.085938 7.65625 -4.609375 C 7.519531 -4.128906 7.226562 -3.769531 6.78125 -3.53125 C 6.34375 -3.289062 5.882812 -3.238281 5.40625 -3.375 C 4.925781 -3.519531 4.566406 -3.8125 4.328125 -4.25 L -1.171875 -14.375 L -4.234375 -12.71875 C -4.640625 -12.5 -5.066406 -12.453125 -5.515625 -12.578125 C -5.960938 -12.703125 -6.296875 -12.96875 -6.515625 -13.375 Z M -6.515625 -13.375 "/></g></g></g><g fill="#ffffff" fill-opacity="1"><g transform="translate(203.726578, 35.08197)"><g><path d="M -6.546875 -13.5 C -6.828125 -13.914062 -6.914062 -14.367188 -6.8125 -14.859375 C -6.71875 -15.359375 -6.46875 -15.742188 -6.0625 -16.015625 C -5.644531 -16.296875 -5.191406 -16.390625 -4.703125 -16.296875 C -4.210938 -16.203125 -3.828125 -15.945312 -3.546875 -15.53125 L 3.84375 -4.625 C 4.125 -4.207031 4.21875 -3.753906 4.125 -3.265625 C 4.03125 -2.773438 3.773438 -2.390625 3.359375 -2.109375 C 2.953125 -1.835938 2.5 -1.742188 2 -1.828125 C 1.507812 -1.921875 1.125 -2.175781 0.84375 -2.59375 Z M -6.546875 -13.5 "/></g></g></g><g fill="#ffffff" fill-opacity="1"><g transform="translate(213.830381, 28.295802)"><g><path d="M -0.703125 -2.484375 L -4.6875 -16.140625 C -4.832031 -16.617188 -4.847656 -17.066406 -4.734375 -17.484375 C -4.628906 -17.910156 -4.382812 -18.285156 -4 -18.609375 L -3.84375 -18.75 C -3.457031 -19.070312 -3.050781 -19.25 -2.625 -19.28125 C -2.195312 -19.3125 -1.753906 -19.21875 -1.296875 -19 L 11.5 -12.78125 C 11.820312 -12.59375 12.03125 -12.445312 12.125 -12.34375 C 12.4375 -11.96875 12.578125 -11.546875 12.546875 -11.078125 C 12.515625 -10.609375 12.3125 -10.210938 11.9375 -9.890625 C 11.601562 -9.617188 11.253906 -9.476562 10.890625 -9.46875 C 10.523438 -9.46875 10.15625 -9.550781 9.78125 -9.71875 L 7.265625 -10.984375 L 1.703125 -6.28125 L 2.5625 -3.484375 C 2.675781 -3.097656 2.6875 -2.734375 2.59375 -2.390625 C 2.5 -2.054688 2.3125 -1.769531 2.03125 -1.53125 C 1.664062 -1.21875 1.25 -1.082031 0.78125 -1.125 C 0.320312 -1.164062 -0.0625 -1.367188 -0.375 -1.734375 C -0.445312 -1.835938 -0.507812 -1.953125 -0.5625 -2.078125 C -0.625 -2.203125 -0.671875 -2.335938 -0.703125 -2.484375 Z M 0.65625 -9.609375 L 4.15625 -12.578125 L -1.109375 -15.265625 Z M 0.65625 -9.609375 "/></g></g></g></g></g></g></g></svg>